<svg id="Capa_1" enable-background="new 0 0 512 512" height="512" viewBox="0 0 512 512" width="512" xmlns="http://www.w3.org/2000/svg"><g><g><path d="m415.672 215.748h-65.456v42.676h62.83c11.06 0 20.025 8.966 20.025 20.025v98.732c0 11.06-8.966 20.025-20.025 20.025h-62.83v42.676h65.456c33.042 0 60.076-27.034 60.076-60.076v-103.982c0-33.042-27.034-60.076-60.076-60.076z" fill="#d5f0f7"/></g><g><path d="m454.41 349.154c-11.785 0-21.338-9.553-21.338-21.338v49.366c0 11.06-8.966 20.025-20.025 20.025h-62.83v42.676h65.456c33.042 0 60.076-27.034 60.076-60.076v-51.991c-.001 11.784-9.554 21.338-21.339 21.338z" fill="#a5e7ff"/></g><g><path d="m326.264 504.5h-192.678c-33.179 0-60.076-26.897-60.076-60.076v-309.375h312.83v309.375c0 33.179-26.897 60.076-60.076 60.076z" fill="#e7faff"/></g><g><path d="m167.397 444.424v-309.375h-93.887v309.375c0 33.179 26.897 60.076 60.076 60.076h93.888c-33.18 0-60.077-26.897-60.077-60.076z" fill="#d5f0f7"/></g><g><path d="m113.56 135.049h232.729v123.376h-232.729z" fill="#ffe1bd"/></g><g><path d="m113.56 135.049h53.837v123.375h-53.837z" fill="#fdd3a6"/></g><g><path d="m133.586 464.45c-11.042 0-20.025-8.983-20.025-20.025v-186h232.729v186c0 11.042-8.983 20.025-20.025 20.025z" fill="#f9d171"/></g><g><path d="m167.397 258.424h-53.837v186c0 11.042 8.984 20.025 20.025 20.025h37.244c-2.215-6.265-3.432-13.002-3.432-20.026z" fill="#ffaa3e"/></g><g><circle cx="293.259" cy="343.12" fill="#ffaa3e" r="15.019"/></g><g><circle cx="268.387" cy="298.702" fill="#ffaa3e" r="10.013"/></g><g><path d="m404.076 107.298c.039-.825.063-1.654.063-2.489 0-28.605-23.189-51.793-51.793-51.793-1.407 0-2.799.058-4.177.17-4.172.339-8.173-1.466-10.749-4.764-8.558-10.958-21.886-18.006-36.867-18.006-4.968 0-9.753.777-14.244 2.214-4.89 1.565-10.291.011-13.435-4.049-9.932-12.824-25.474-21.081-42.949-21.081-16.106 0-30.566 7.018-40.508 18.158-3.226 3.614-8.274 5.062-12.883 3.569-4.539-1.47-9.382-2.266-14.411-2.266-17.828 0-33.323 9.977-41.214 24.651-2.308 4.292-6.93 6.917-11.79 6.555-1.155-.086-2.322-.13-3.499-.13-25.831 0-46.771 20.94-46.771 46.771v.066c.006 3.917-1.755 7.588-4.827 10.019-11.54 9.13-18.674 23.581-17.682 39.653 1.439 23.302 20.277 42.196 43.574 43.703 10.471.677 20.255-2.1 28.339-7.296 4.159-2.674 9.438-2.649 13.601.02 3.998 2.564 8.412 4.535 13.118 5.791 5.425 1.447 9.222 6.324 9.222 11.938v92.695c0 20.717 16.951 37.668 37.668 37.668h1.569c20.717 0 37.668-16.951 37.668-37.668v-84.827c0-6.904 5.662-12.56 12.563-12.343.551.017 1.104.026 1.659.026 15.046 0 28.611-6.313 38.206-16.432 4.238-4.469 11.188-5.168 16.131-1.496 7.778 5.778 17.409 9.199 27.844 9.199 9.55 0 18.428-2.866 25.829-7.781 3.708-2.463 8.446-2.7 12.418-.689 7.112 3.601 15.265 5.441 23.892 4.935 23.452-1.375 42.46-20.348 43.872-43.797 1.014-16.839-6.896-31.887-19.437-40.894z" fill="#fff8e9"/></g><g><path d="m247.305 196.764c-4.706-1.256-9.12-3.227-13.118-5.791-4.162-2.669-9.441-2.693-13.6-.02-8.083 5.196-17.868 7.973-28.339 7.296-23.298-1.507-42.135-20.401-43.574-43.703-.993-16.073 6.142-30.523 17.682-39.653 3.072-2.431 4.833-6.101 4.827-10.019 0-.022 0-.044 0-.066 0-25.831 20.94-46.771 46.771-46.771 1.177 0 2.344.044 3.499.13 4.86.362 9.482-2.263 11.79-6.555 7.469-13.89 21.753-23.566 38.379-24.56-9.961-11.94-24.932-19.552-41.697-19.552-16.106 0-30.566 7.018-40.508 18.158-3.226 3.614-8.274 5.062-12.883 3.569-4.539-1.47-9.382-2.266-14.411-2.266-17.828 0-33.323 9.977-41.214 24.651-2.308 4.292-6.93 6.917-11.79 6.555-1.155-.086-2.322-.13-3.499-.13-25.831 0-46.771 20.94-46.771 46.771v.066c.006 3.917-1.755 7.588-4.827 10.019-11.54 9.13-18.674 23.581-17.682 39.653 1.439 23.302 20.277 42.196 43.574 43.703 10.471.677 20.255-2.1 28.339-7.296 4.159-2.674 9.438-2.649 13.6.02 3.998 2.564 8.412 4.535 13.118 5.791 5.425 1.447 9.222 6.324 9.222 11.938v92.695c0 20.717 16.95 37.668 37.668 37.668h1.57c20.717 0 37.668-16.951 37.668-37.668v-84.827c0-6.904 5.662-12.56 12.563-12.343.551.017 1.104.026 1.659.026 6.485 0 12.691-1.178 18.426-3.323-1.613-1.979-3.836-3.47-6.442-4.166z" fill="#fff2cf"/></g><g><path d="m167.397 428.146c4.142 0 7.5-3.357 7.5-7.5v-12.016c0-4.143-3.358-7.5-7.5-7.5s-7.5 3.357-7.5 7.5v12.016c0 4.142 3.358 7.5 7.5 7.5z"/><path d="m292.453 428.146c4.143 0 7.5-3.357 7.5-7.5v-12.016c0-4.143-3.357-7.5-7.5-7.5s-7.5 3.357-7.5 7.5v12.016c0 4.142 3.357 7.5 7.5 7.5z"/><path d="m229.925 435.297c8.487 0 16.556-3.675 22.14-10.083 2.721-3.123 2.395-7.86-.728-10.581-3.124-2.722-7.86-2.396-10.582.728-2.733 3.137-6.681 4.937-10.83 4.937s-8.096-1.8-10.83-4.937c-2.722-3.124-7.458-3.448-10.582-.728-3.123 2.721-3.448 7.458-.728 10.581 5.584 6.408 13.653 10.083 22.14 10.083z"/><path d="m415.672 208.248h-21.831v-11.4c20.644-6.792 35.799-25.612 37.159-48.206 1.048-17.406-6.141-33.935-19.372-44.977-.188-9.729-2.771-19.306-7.501-27.763-2.022-3.615-6.593-4.905-10.207-2.885-3.615 2.021-4.906 6.592-2.885 10.207 3.666 6.555 5.604 14.019 5.604 21.583 0 .716-.021 1.427-.054 2.135-.12 2.538 1.053 4.964 3.116 6.446 11.04 7.929 17.144 20.771 16.326 34.352-1.192 19.796-17.023 35.6-36.825 36.761-6.966.408-13.911-1.021-20.065-4.139-6.388-3.234-14.035-2.8-19.954 1.133-6.431 4.271-13.928 6.529-21.68 6.529-8.492 0-16.573-2.669-23.371-7.72-7.962-5.915-19.16-4.905-26.046 2.355-8.616 9.087-20.252 14.092-32.764 14.092-.479 0-.957-.008-1.422-.021-5.337-.176-10.388 1.795-14.24 5.527-3.851 3.731-6.059 8.948-6.059 14.312v84.828c0 16.635-13.533 30.168-30.167 30.168h-1.57c-16.634 0-30.167-13.533-30.167-30.168v-92.695c0-8.973-6.082-16.862-14.789-19.185-3.894-1.04-7.596-2.674-11.003-4.858-6.607-4.237-15.127-4.242-21.704-.016-7.083 4.554-15.313 6.671-23.799 6.121-19.637-1.271-35.36-17.04-36.573-36.681-.795-12.872 4.756-25.324 14.851-33.311 4.885-3.866 7.682-9.666 7.672-15.966 0-21.654 17.617-39.271 39.271-39.271.989 0 1.977.036 2.942.109 7.779.581 15.216-3.536 18.951-10.483 6.867-12.77 20.128-20.702 34.608-20.702 4.136 0 8.208.64 12.1 1.9 7.394 2.396 15.555.154 20.79-5.71 8.876-9.944 21.602-15.649 34.911-15.649 14.581 0 28.074 6.624 37.018 18.173 5.022 6.483 13.721 9.137 21.652 6.599 3.848-1.231 7.871-1.856 11.957-1.856 12.168 0 23.451 5.512 30.956 15.122 4.15 5.314 10.602 8.166 17.265 7.623 1.187-.096 2.388-.145 3.572-.145 7.112 0 13.9 1.632 20.178 4.851 3.681 1.889 8.205.435 10.096-3.252 1.89-3.686.434-8.206-3.252-10.096-9.699-4.973-20.799-7.191-31.808-6.31-1.622.137-3.195-.581-4.229-1.904-10.367-13.275-25.96-20.89-42.778-20.89-5.641 0-11.202.865-16.529 2.57-1.946.626-4.044.02-5.221-1.498-11.806-15.244-29.621-23.987-48.877-23.987-17.579 0-34.383 7.532-46.103 20.664-1.28 1.433-3.231 1.991-4.976 1.429-5.388-1.746-11.015-2.631-16.723-2.631-20.01 0-38.333 10.958-47.819 28.599-.919 1.709-2.777 2.762-4.621 2.629-1.332-.101-2.698-.151-4.062-.151-29.925 0-54.271 24.346-54.271 54.348.002 1.624-.72 3.128-1.98 4.126-13.943 11.031-21.612 28.227-20.514 45.997 1.389 22.5 16.554 41.313 37.154 48.111v241.304c0 37.262 30.314 67.576 67.576 67.576h192.679c36.269 0 65.946-28.724 67.501-64.617h21.906c37.262 0 67.576-30.314 67.576-67.575v-103.985c0-37.262-30.315-67.576-67.576-67.576zm-21.831 57.676h19.206c6.906 0 12.525 5.619 12.525 12.525v98.732c0 6.906-5.619 12.525-12.525 12.525h-19.206zm-163.743-52.892c.528-.511 1.671-1.377 3.34-1.308.626.019 1.254.028 1.885.028 16.669 0 32.171-6.666 43.647-18.771 1.666-1.757 4.338-2.033 6.217-.636 9.403 6.986 20.578 10.679 32.316 10.679 7.383 0 14.601-1.484 21.287-4.341v52.239h-110.19v-34.352c0-1.346.532-2.602 1.498-3.538zm-97.058-9.02c2.152.573 3.656 2.503 3.656 4.691v42.221h-15.636v-51.714c3.789 2.072 7.802 3.686 11.98 4.802zm193.224 292.988h-192.678c-28.991 0-52.576-23.586-52.576-52.576v-238.618c8.745.319 17.266-1.422 25.051-5.089v166.453c0 4.143 3.358 7.5 7.5 7.5s7.5-3.357 7.5-7.5v-101.246h15.635v35.475c0 24.905 20.262 45.168 45.167 45.168h1.57c24.905 0 45.167-20.263 45.167-45.168v-35.475h110.19v178.5c0 6.906-5.619 12.525-12.525 12.525h-192.679c-6.907 0-12.525-5.619-12.525-12.525v-47.217c0-4.143-3.358-7.5-7.5-7.5s-7.5 3.357-7.5 7.5v47.217c0 15.178 12.348 27.525 27.525 27.525h192.679c15.178 0 27.525-12.348 27.525-27.525v-249.985c7.781 3.654 16.38 5.399 25.051 5.089v244.895c0 28.991-23.586 52.577-52.577 52.577zm141.984-117.192c0 28.99-23.586 52.575-52.576 52.575h-21.831v-27.676h19.206c15.178 0 27.525-12.348 27.525-27.525v-98.732c0-15.178-12.348-27.525-27.525-27.525h-19.206v-27.676h21.831c28.99 0 52.576 23.586 52.576 52.576z"/><path d="m174.571 67.067c-25.13-4.736-37.719 14.302-40.867 25.03-1.166 3.975 1.104 8.165 5.079 9.331.709.208 1.424.308 2.127.308 3.237 0 6.216-2.104 7.174-5.369.567-1.841 6.052-17.89 23.708-14.56 4.071.77 7.992-1.91 8.76-5.98s-1.911-7.992-5.981-8.76z"/><path d="m337.649 133.792c-.739 1.778-7.722 17.229-24.985 12.241-3.973-1.147-8.137 1.143-9.288 5.122-1.15 3.979 1.143 8.138 5.122 9.288 3.914 1.132 7.566 1.632 10.962 1.632 17.911 0 28.607-13.939 32.099-22.666 1.538-3.847-.323-8.233-4.169-9.772-3.846-1.538-8.203.309-9.741 4.155z"/></g></g></svg>