<svg xmlns="http://www.w3.org/2000/svg" width="83" height="37" fill="none" viewBox="0 0 83 37">
    <path fill="#fff" stroke="#000" stroke-linecap="round" d="M71.808 11.266c-.424-.318-2.352-1.113-2.79-.562l2.1 4.1c.69.118 2.199.539 2.708 1.274.637.92 2.057 1.185 1.526 2.308-.53 1.122.53 1.439.846 1.899.315.46-.604 1.096-.463 2.086.071.495-.282 1.556-.777 1.627-.495.07-1.5 2.234.172 1.995 2.09-.298 4.495-1.147 4.212-3.127-.283-1.98 3.11-2.97 1.838-4.808-1.273-1.839-.628-4.6-5.617-5.835-.158-.148-.865.066-1.078.096-.346.05-.844-.147-1.159-.294-.516-.242-1.055-.412-1.518-.76z"/>
    <path fill="#fff" stroke="#000" stroke-linecap="round" d="M42.126 36.23C41.11 36.287 41 34.714 41 33.958c.191-1.354.374-2.382.427-3.478.073-1.5-.927-4.54-.927-5.434 0-1.566-.815-2.782-1.5-4.117-1-1.949-2.5-1.949-3.5-1.949s-2-.823-3.5 0c-1.2.659-3.035 1.173-3.553 1.348-1.316.384-4.047.952-4.447.152l4.447-15.007C29.465 4.81 32 3.5 34.5 3c2.5-.5 8.165-.167 10.998 0h.002c1.834 0 6.7.5 7.5.5 1 0 3.329.465 5.5 1C60.5 4.993 64 6 64 6s3 .98 4 2.48 3.073 1.413 3.786 5.207v2.446c0 .787-.35 1.26-.35 2.097 0 .703-.698 1.314-.698 2.098 0 .864-.35 1.558-.35 2.446v2.447c0 .469-.324.774-.35 1.223-.02.379.086.837-.019 1.204-.104.365-.493.867-.519 1.332-.022.403-.09.381-.18.784-.151.681-.68 1.451-.68 2.097 0 .638-.772 1.478-1.048 2.097-.38.858-.933 1.614-1.398 2.428-.3.525-2.607-1.154-2.777-1.748-.116-.408.33-.604.33-1.03V29.94c0-1.637.038-3.41-.62-4.893-.32-.719-.183-1.53-.7-2.175-.429-.536-.626-1.421-1.204-1.942-.388-.35-1.181-.525-1.592-.854-.561-.45-1.446-.272-2.175-.272-1.818.108-5.656.259-6.456 0-1-.323-3.5 2.177-4.5 4.677-1.05 2.627 0 4.5-1 6.5-.705 1.41-.451 3.218-.927 4.124-.743.413-1.557 1.077-2.447 1.126z"/>
    <path fill="#fff" d="M17.377 6.6c2.177-.754 4.764-.436 7.053-.428.625-.375 1.09-.699 2.071-.699 1.125 0 2.278 1.068 3.068 1.748.832.716 2.226 3.276 2.226 4.76 0 1.482 0 2.5-.517 4-.668 1.942-.048 1.98-2.065 3.5-1.266.953-1.565 1.985-3.098 2.5-1.493.5-2.321 2-4.648 1.5-2.326-.5-3.444-.939-4.647-1-1.051 0-2.893.105-3.855-.309-.638-.275-1.304-.494-1.985-.64-.534-.116-1.002-.533-1.464-.66-1.218-.338-.882-1.982-.882-2.991 0-1.368.166-2.439.802-3.67.402-.78 1.008-1.499 1.363-2.272.394-.857 1.09-1.252 1.625-1.942 1.095-1.414 3.226-2.8 4.953-3.398z"/>
    <path stroke="#000" stroke-linecap="round" d="M24.516 6.172c-2.31 0-4.935-.335-7.14.427-1.726.597-3.857 1.984-4.952 3.398-.535.69-1.231 1.085-1.625 1.942-.354.773-.96 1.492-1.363 2.272-.636 1.231-.802 2.302-.802 3.67 0 1.009-.336 2.653.882 2.99.462.128.93.545 1.464.66.68.147 1.347.366 1.985.641.962.414 2.804.308 3.855.308 1.203.062 2.32.5 4.647 1 2.327.5 3.155-1 4.648-1.5 1.533-.514 1.832-1.546 3.098-2.5 2.017-1.52 1.397-1.557 2.065-3.5.517-1.5.517-2.517.517-4S30.4 7.937 29.569 7.22c-.79-.68-1.943-1.747-3.068-1.747-1.28 0-1.683.553-2.707 1.049"/>
    <path fill="#FF8D8D" d="M19.918 12.98c1.033-2.5 5.164-4 6.975-2.32 1.81 1.681.86 2.711.255 4.32-.607 1.61-2.705 2.074-4.008 3.442-1.426 1.497-1.206 2.147-2.41 3.76-1.202 1.612-3.344.909-5.138-.175-1.575-.951.388-4.272 1.585-4.72 1.196-.448 1.708-1.807 2.741-4.307z" style="mix-blend-mode:multiply"/>
    <path stroke="#000" stroke-linecap="round" d="M24.305 12.48c-.328.847-.965 2.04-1.805 2.447m-5.064 3.553c-.045 1.047-1.232 2.049-2.165 2.5"/>
    <path fill="#fff" d="M9.655 14.136c.3.29-.064.844.452 2.344s.516 2 0 2.88c-.516.878 0 1.62-1.033 2.12-1.045.506-.267 1.327-2.065 1.5-1.798.173-.765-.119-2.582-.5-.903-.19-2.065.5-3.098-.5s.516-1.879 2.582-2.5c2.396-.72 1.986-1.87 2.581-3 .616-1.166.517-3.5 1.55-3 1.032.5 1.613.656 1.613.656zM17.336 2.48c-.226 1.852-1.287 3.689.517 4.238 0 0 1.33.762 2.581.762s2.687-1.525 3.41-.762c.721.762 1.854 2.524 2.787 1.262.272-.264.566-1.088.566-1.44 0-.836-.274-1.27-.566-2.06-.551-.862-.919-1.834-3.098-2-.824-.256-2.228-.992-3.098-1-.816-.007-1.813-.843-2.066-.292-.225.49-.956.667-1.033 1.292z"/>
    <path stroke="#000" stroke-linecap="round" d="M9.655 14.136c.3.29-.064.844.452 2.344s.516 2 0 2.88c-.516.878 0 1.62-1.033 2.12-1.045.506-.267 1.327-2.065 1.5-1.798.173-.765-.119-2.582-.5-.903-.19-2.065.5-3.098-.5s.516-1.879 2.582-2.5c2.396-.72 1.986-1.87 2.581-3 .616-1.166.517-3.5 1.55-3 1.032.5 1.613.656 1.613.656zM17.336 2.48c-.226 1.852-1.287 3.689.517 4.238 0 0 1.33.762 2.581.762s2.687-1.525 3.41-.762c.721.762 1.854 2.524 2.787 1.262.272-.264.566-1.088.566-1.44 0-.836-.274-1.27-.566-2.06-.551-.862-.919-1.834-3.098-2-.824-.256-2.228-.992-3.098-1-.816-.007-1.813-.843-2.066-.292-.225.49-.956.667-1.033 1.292z"/>
    <path fill="#000" stroke="#000" stroke-linecap="round" d="M20.557 19.622c-.428-.68.406-.473 1.766-1.704 1.36-1.232 1.527 1.32.847 1.897-.68.576-2.079.656-2.613-.193z"/>
    <path fill="#D3EEF0" d="M31.883 21.467c-1.044-1.492-5.68-.5-5.164 0 .517.5 2.659.122 3.615.5.956.378 2.593.992 1.55-.5z"/>
</svg>
