<svg width="20" height="27" viewBox="0 0 15 19" fill="none" xmlns="http://www.w3.org/2000/svg">
<path d="M1 12.1652V7.16519C1 6.83367 1.1317 6.51573 1.36612 6.28131C1.60054 6.04689 1.91848 5.91519 2.25 5.91519H5.62125C5.86817 5.91524 6.10957 5.84217 6.315 5.70519L11.5562 2.21019C11.7447 2.08447 11.9637 2.01232 12.19 2.00144C12.4162 1.99057 12.6412 2.04137 12.8408 2.14844C13.0404 2.2555 13.2072 2.41479 13.3233 2.60929C13.4394 2.80378 13.5005 3.02617 13.5 3.25269V16.0777C13.5 16.304 13.4386 16.5261 13.3223 16.7202C13.2061 16.9143 13.0392 17.0733 12.8397 17.18C12.6402 17.2868 12.4154 17.3374 12.1894 17.3264C11.9633 17.3154 11.7445 17.2433 11.5562 17.1177L6.315 13.6239C6.10943 13.4874 5.86804 13.4148 5.62125 13.4152H2.25C1.91848 13.4152 1.60054 13.2835 1.36612 13.0491C1.1317 12.8147 1 12.4967 1 12.1652V12.1652Z" stroke="#9FE2FF" stroke-width="1.5"/>
<line x1="14.0935" y1="0.700904" x2="1.7009" y2="16.9065" stroke="#9FE2FF" stroke-linecap="round"/>
</svg>
