<svg xmlns="http://www.w3.org/2000/svg" width="27" height="20" fill="none" viewBox="0 0 27 20">
    <path stroke="#9fe2ff" stroke-width="1.5" d="M1 13.165v-5c0-.331.132-.65.366-.884.235-.234.552-.366.884-.366h3.371c.247 0 .489-.073.694-.21l5.241-3.495c.189-.126.408-.198.634-.209.226-.01.451.04.65.147.2.107.367.267.483.461.116.195.178.417.177.644v12.825c0 .226-.061.448-.178.642-.116.194-.283.353-.482.46-.2.107-.425.157-.65.146-.227-.01-.445-.083-.634-.208l-5.241-3.494c-.206-.137-.447-.21-.694-.209H2.25c-.332 0-.65-.131-.884-.366-.234-.234-.366-.552-.366-.884v0z"/>
    <path stroke="#9fe2ff" stroke-linecap="round" stroke-linejoin="round" stroke-width="1.5" d="M19.125 5.04S21 6.915 21 10.04s-1.875 5-1.875 5M22.875 1.29S26 4.415 26 10.04s-3.125 8.75-3.125 8.75"/>
</svg>
