<svg xmlns="http://www.w3.org/2000/svg" width="37" height="32" fill="none" viewBox="0 0 37 32">
    <g filter="url(#filter0_d)">
        <path fill="#fff" fill-opacity=".9" d="M31.188 14.287H9.69l6.58-7.474c.307-.35.455-.801.411-1.254-.044-.454-.277-.872-.647-1.163-.37-.29-.847-.43-1.327-.389-.479.042-.921.262-1.229.612L4.417 14.904c-.061.082-.116.168-.163.257 0 .086 0 .137-.127.223-.082.197-.125.406-.127.617.002.211.045.42.127.617 0 .086 0 .137.127.223.047.09.102.175.163.257l9.062 10.285c.17.193.384.349.625.456.242.106.505.161.771.161.424 0 .834-.139 1.16-.394.183-.144.335-.32.446-.52.112-.2.18-.418.202-.642.022-.225-.003-.451-.074-.667-.07-.215-.186-.415-.338-.588l-6.58-7.474h21.496c.481 0 .942-.18 1.282-.502.34-.321.531-.757.531-1.212 0-.455-.191-.89-.53-1.212-.34-.322-.802-.502-1.282-.502z"/>
    </g>
    <defs>
        <filter id="filter0_d" width="37" height="32" x="0" y="0" color-interpolation-filters="sRGB" filterUnits="userSpaceOnUse">
            <feFlood flood-opacity="0" result="BackgroundImageFix"/>
            <feColorMatrix in="SourceAlpha" result="hardAlpha" values="0 0 0 0 0 0 0 0 0 0 0 0 0 0 0 0 0 0 127 0"/>
            <feOffset/>
            <feGaussianBlur stdDeviation="2"/>
            <feColorMatrix values="0 0 0 0 0 0 0 0 0 0 0 0 0 0 0 0 0 0 0.2 0"/>
            <feBlend in2="BackgroundImageFix" result="effect1_dropShadow"/>
            <feBlend in="SourceGraphic" in2="effect1_dropShadow" result="shape"/>
        </filter>
    </defs>
</svg>
