<svg xmlns="http://www.w3.org/2000/svg" width="21" height="20" fill="none" viewBox="0 0 21 20">
    <circle cx="10.5" cy="10" r="10" fill="#CEC1AE"/>
    <path fill="#fff" d="M7.318 4.242c-.522 0-1.023.208-1.393.577-.369.37-.577.87-.577 1.393V15c0 .362.144.709.4.964.256.256.602.4.964.4h5.455c.361 0 .708-.144.964-.4.256-.255.4-.602.4-.964v-1.06h.757c.258 0 .515-.052.754-.15.239-.1.456-.245.639-.427.183-.183.328-.4.427-.64.099-.239.15-.495.15-.753V8.636c0-.258-.051-.514-.15-.753-.1-.24-.244-.457-.427-.64-.183-.182-.4-.327-.64-.426-.238-.1-.495-.15-.753-.15h-.758v-.455c0-.522-.207-1.023-.577-1.393-.369-.37-.87-.577-1.392-.577H7.318zm6.97 8.788h-.758V7.576h.758c.585 0 1.06.475 1.06 1.06v3.334c0 .281-.111.55-.31.75-.2.199-.469.31-.75.31zM12.62 6.667H6.258v-.455c0-.585.475-1.06 1.06-1.06h4.243c.585 0 1.06.475 1.06 1.06v.455zM8.076 9.09v4.242c0 .12-.048.236-.133.322-.086.085-.201.133-.322.133-.12 0-.236-.048-.321-.133-.085-.085-.133-.201-.133-.322V9.091c0-.12.048-.236.133-.321.085-.086.2-.134.321-.134.12 0 .236.048.322.134.085.085.133.2.133.32zm1.818 0v4.242c0 .12-.048.236-.133.322-.085.085-.201.133-.322.133-.12 0-.236-.048-.321-.133-.085-.085-.133-.201-.133-.322V9.091c0-.12.048-.236.133-.321.085-.086.2-.134.321-.134.12 0 .237.048.322.134.085.085.133.2.133.32zm1.818 0v4.242c0 .12-.048.236-.133.322-.085.085-.2.133-.321.133s-.237-.048-.322-.133c-.085-.085-.133-.201-.133-.322V9.091c0-.12.048-.236.133-.321.085-.086.201-.134.322-.134.12 0 .236.048.321.134.085.085.133.2.133.32z"/>
</svg>
