<svg xmlns="http://www.w3.org/2000/svg" width="80" height="37" fill="none" viewBox="0 0 80 37">
    <path fill="#ECC180" stroke="#000" stroke-linecap="round" d="M71 11.43c-.374-.374-2.17-1.434-2.682-.95l1.5 4.356c.667.215 2.1.844 2.5 1.644.5 1 1.869 1.464 1.184 2.5-.684 1.036.322 1.5.57 2 .246.5-.754 1-.754 2 0 .5-.5 1.5-1 1.5s-1.8 2-.111 2c2.111 0 4.611-.5 4.611-2.5s3.5-2.5 2.5-4.5.03-4.642-4.735-6.571c-.135-.169-.866-.057-1.08-.057-.35 0-.816-.265-1.106-.455-.478-.312-.987-.557-1.396-.966z"/>
    <path fill="#ECC180" stroke="#000" stroke-linecap="round" d="M40.945 36.23c-1.017.057-1.127-1.516-1.127-2.271.191-1.355.374-2.383.428-3.479.072-1.5-.928-4.54-.928-5.434 0-1.566-.815-2.782-1.5-4.117-1-1.949-2.5-1.949-3.5-1.949s-2-.823-3.5 0c-1.2.659-3.035 1.173-3.553 1.348-1.316.384-4.047.952-4.447.152l4.447-15.007c1.018-.664 3.653-1.893 6.053-1.493 2.4.4 8.667.833 11.5 1h6.5c1 0 4-1 6 0l.025.012c1.991.996 3.975 1.988 5.223 1.988 1.252 0 3.252 0 4.252 1.5s3.073 1.413 3.787 5.207v2.446c0 .787-.35 1.26-.35 2.097 0 .703-.699 1.314-.699 2.098 0 .864-.35 1.558-.35 2.446v2.447c0 .469-.324.774-.349 1.223-.021.379.085.837-.02 1.204-.104.365-.493.867-.519 1.332-.022.403-.09.381-.18.784-.15.681-.679 1.451-.679 2.097 0 .638-.773 1.478-1.049 2.098-.38.857-.933 1.613-1.398 2.427-.3.525-2.607-1.154-2.776-1.748-.117-.408.33-.604.33-1.029v-3.67c0-1.637.038-3.41-.622-4.893-.319-.719-.182-1.53-.699-2.175-.428-.536-.626-1.421-1.203-1.942-.389-.35-1.182-.525-1.593-.854-.561-.449-1.446-.272-2.174-.272-1.82.108-5.657.259-6.457 0-1-.323-3.5 2.177-4.5 4.677-1.05 2.627 0 4.5-1 6.5-.704 1.41-.451 3.218-.927 4.124-.743.413-1.556 1.077-2.446 1.126z"/>
    <path fill="#ECC180" d="M16.858 6.6c2.108-.754 4.613-.436 6.829-.428.605-.375 1.056-.699 2.005-.699 1.09 0 2.206 1.068 2.971 1.748.806.716 2.155 3.276 2.155 4.76 0 1.482 0 2.5-.5 4-.647 1.942-.046 1.98-2 3.5-1.226.953-1.515 1.985-3 2.5-1.445.5-2.247 2-4.5 1.5-2.252-.5-3.334-.939-4.5-1-1.018 0-2.801.105-3.732-.309-.618-.275-1.263-.494-1.923-.64-.517-.116-.97-.533-1.417-.66-1.18-.338-.854-1.982-.854-2.991 0-1.368.16-2.439.776-3.67.39-.78.977-1.499 1.32-2.272.382-.857 1.056-1.252 1.573-1.942 1.061-1.414 3.124-2.8 4.797-3.398z"/>
    <path stroke="#000" stroke-linecap="round" d="M23.77 6.172c-2.236 0-4.778-.335-6.912.427-1.673.597-3.736 1.984-4.797 3.398-.517.69-1.191 1.085-1.572 1.942-.344.773-.93 1.492-1.32 2.272-.617 1.231-.777 2.302-.777 3.67 0 1.009-.326 2.653.854 2.99.447.128.9.545 1.417.66.66.147 1.305.366 1.923.641.93.414 2.714.308 3.732.308 1.166.062 2.248.5 4.5 1 2.253.5 3.055-1 4.5-1.5 1.485-.514 1.774-1.546 3-2.5 1.954-1.52 1.353-1.557 2-3.5.5-1.5.5-2.517.5-4s-1.35-4.043-2.155-4.76c-.765-.68-1.881-1.747-2.97-1.747-1.24 0-1.63.553-2.622 1.049"/>
    <path fill="#FF8D8D" d="M19.318 12.98c1-2.5 5-4 6.754-2.32 1.753 1.681.833 2.711.246 4.32-.587 1.61-2.618 2.074-3.88 3.442-1.381 1.497-1.168 2.147-2.333 3.76-1.165 1.612-3.238.909-4.975-.175-1.525-.951.375-4.272 1.534-4.72 1.158-.448 1.654-1.807 2.654-4.307z" style="mix-blend-mode:multiply"/>
    <path stroke="#000" stroke-linecap="round" d="M23.566 12.48c-.318.847-.935 2.04-1.748 2.447m-4.903 3.553c-.043 1.047-1.193 2.049-2.097 2.5"/>
    <path fill="#ECC180" d="M9.38 14.136c.291.29-.062.844.438 2.344s.5 2 0 2.88c-.5.878 0 1.62-1 2.12-1.012.506-.259 1.327-2 1.5-1.74.173-.74-.119-2.5-.5-.874-.19-2 .5-3-.5s.5-1.879 2.5-2.5c2.32-.72 1.924-1.87 2.5-3 .596-1.166.5-3.5 1.5-3s1.562.656 1.562.656zM16.818 2.48c-.219 1.852-1.246 3.689.5 4.238 0 0 1.29.762 2.5.762 1.211 0 2.601-1.525 3.3-.762.7.762 1.797 2.524 2.7 1.262.264-.264.548-1.088.548-1.44 0-.836-.265-1.27-.548-2.06-.533-.862-.89-1.834-3-2-.797-.256-2.157-.992-3-1-.789-.007-1.755-.843-2-.292-.217.49-.926.667-1 1.292z"/>
    <path stroke="#000" stroke-linecap="round" d="M9.38 14.136c.291.29-.062.844.438 2.344s.5 2 0 2.88c-.5.878 0 1.62-1 2.12-1.012.506-.259 1.327-2 1.5-1.74.173-.74-.119-2.5-.5-.874-.19-2 .5-3-.5s.5-1.879 2.5-2.5c2.32-.72 1.924-1.87 2.5-3 .596-1.166.5-3.5 1.5-3s1.562.656 1.562.656zM16.818 2.48c-.219 1.852-1.246 3.689.5 4.238 0 0 1.29.762 2.5.762 1.211 0 2.601-1.525 3.3-.762.7.762 1.797 2.524 2.7 1.262.264-.264.548-1.088.548-1.44 0-.836-.265-1.27-.548-2.06-.533-.862-.89-1.834-3-2-.797-.256-2.157-.992-3-1-.789-.007-1.755-.843-2-.292-.217.49-.926.667-1 1.292z"/>
    <path fill="#000" stroke="#000" stroke-linecap="round" d="M19.937 19.622c-.414-.68.393-.473 1.71-1.704 1.317-1.232 1.479 1.32.82 1.897-.659.576-2.013.656-2.53-.193z"/>
    <path fill="#D3EEF0" d="M30.904 21.467c-1.011-1.492-5.5-.5-5 0s2.574.122 3.5.5c.926.378 2.511.992 1.5-.5z"/>
</svg>
