<svg width="27" height="27" fill="none" xmlns="http://www.w3.org/2000/svg">
    <circle cx="13.5" cy="13.5" r="13" fill="#FBC574" stroke="#fff"/>
    <path d="M9.205 5.727a2.66 2.66 0 0 0-2.66 2.66V20.25a1.84 1.84 0 0 0 1.841 1.84h7.364a1.84 1.84 0 0 0 1.84-1.84v-1.432h1.024a2.66 2.66 0 0 0 2.659-2.659v-4.5A2.658 2.658 0 0 0 18.613 9h-1.022v-.614a2.659 2.659 0 0 0-2.66-2.659H9.206zm9.409 11.864H17.59v-7.364h1.023c.79 0 1.431.642 1.431 1.432v4.5a1.432 1.432 0 0 1-1.431 1.432zM16.364 9H7.773v-.614c0-.79.641-1.431 1.432-1.431h5.727c.79 0 1.432.641 1.432 1.431V9zm-6.137 3.273V18A.614.614 0 0 1 9 18v-5.727a.614.614 0 0 1 1.227 0zm2.455 0V18a.613.613 0 1 1-1.227 0v-5.727a.614.614 0 1 1 1.227 0zm2.454 0V18a.614.614 0 0 1-1.227 0v-5.727a.614.614 0 0 1 1.227 0z" fill="#fff"/>
</svg>
