<svg id="Capa_1" enable-background="new 0 0 512 512" height="512" viewBox="0 0 512 512" width="512" xmlns="http://www.w3.org/2000/svg"><g><g><path d="m454.8 317.266h-397.6v179.234c0 4.418 3.582 8 8 8h381.6c4.418 0 8-3.582 8-8z" fill="#bdd3dd"/><path d="m431.8 317.266v179.234c0 4.418-3.582 8-8 8h23c4.418 0 8-3.582 8-8v-179.234z" fill="#abc4d6"/><ellipse cx="256" cy="413.383" fill="#a0c8ff" rx="57.983" ry="57.983" transform="matrix(.168 -.986 .986 .168 -194.58 596.14)"/><circle cx="256" cy="413.383" fill="#f9f5f3" r="24.85"/><g><circle cx="140.033" cy="181.45" fill="#ffdad5" r="41.417"/><path d="m189.733 247.717c0-13.724-11.126-24.85-24.85-24.85h-49.7c-13.724 0-24.85 11.126-24.85 24.85v46.417h99.4z" fill="#868eaf"/><path d="m164.883 222.867h-23c13.724 0 24.85 11.126 24.85 24.85v46.417h23v-46.417c0-13.725-11.125-24.85-24.85-24.85z" fill="#7d83ad"/><path d="m140.033 140.033c-3.992 0-7.847.576-11.5 1.63 17.277 4.985 29.917 20.905 29.917 39.786s-12.64 34.801-29.917 39.786c3.653 1.054 7.508 1.63 11.5 1.63 22.874 0 41.417-18.543 41.417-41.417s-18.543-41.415-41.417-41.415z" fill="#ffc2c2"/></g><g><circle cx="371.967" cy="181.45" fill="#ffdad5" r="41.417"/><path d="m421.667 247.717c0-13.724-11.126-24.85-24.85-24.85h-49.7c-13.724 0-24.85 11.126-24.85 24.85v46.417h99.4z" fill="#868eaf"/><path d="m396.816 222.867h-23c13.724 0 24.85 11.126 24.85 24.85v46.417h23v-46.417c.001-13.725-11.125-24.85-24.85-24.85z" fill="#7d83ad"/><path d="m371.966 140.033c-3.992 0-7.847.576-11.5 1.63 17.277 4.985 29.917 20.905 29.917 39.786s-12.64 34.801-29.917 39.786c3.653 1.054 7.508 1.63 11.5 1.63 22.874 0 41.417-18.543 41.417-41.417s-18.543-41.415-41.417-41.415z" fill="#ffc2c2"/></g><path d="m479.933 289.134h-447.866c-4.418 0-8 3.582-8 8v17.132c0 4.418 3.582 8 8 8h447.867c4.418 0 8-3.582 8-8v-17.132c-.001-4.418-3.582-8-8.001-8z" fill="#ffce69"/><path d="m479.933 289.134h-23c4.418 0 8 3.582 8 8v17.132c0 4.418-3.582 8-8 8h23c4.418 0 8-3.582 8-8v-17.132c0-4.418-3.581-8-8-8z" fill="#ffbd61"/><path d="m123.467 222.867 9.411 18.822c2.948 5.896 11.363 5.896 14.311 0l9.411-18.822z" fill="#f9f5f3"/><path d="m355.4 222.867 9.411 18.822c2.948 5.896 11.363 5.896 14.311 0l9.411-18.822z" fill="#f9f5f3"/><g><g><path d="m191.822 106.907c7.359 28.578 33.303 49.693 64.178 49.693 30.878 0 56.823-21.119 64.179-49.7v-49.701c-7.356-28.581-33.302-49.699-64.179-49.699s-56.823 21.119-64.179 49.7z" fill="#89dd8e"/><g fill="#79d191"><g><path d="m272.331 55.258c.373 4.273 4.157 7.429 8.412 7.06 4.273-.373 7.434-4.14 7.061-8.412-1.325-15.165-4.472-30.85-9.773-42.656-6.74-2.375-13.982-3.682-21.521-3.74 3.833 1.233 13.018 15.647 15.821 47.748z"/><path d="m233.969 11.25c-5.301 11.806-8.449 27.491-9.773 42.657-.373 4.273 2.788 8.039 7.061 8.412.23.02.458.03.685.03 3.983 0 7.374-3.048 7.727-7.091 2.802-32.101 11.988-46.515 15.822-47.747-7.54.057-14.782 1.364-21.522 3.739z"/></g><g><path d="m239.669 108.843c-.372-4.273-4.143-7.424-8.412-7.061-4.273.373-7.434 4.139-7.061 8.412 1.324 15.166 4.471 30.851 9.773 42.656 6.74 2.375 13.982 3.683 21.522 3.74-3.834-1.233-13.02-15.647-15.822-47.747z"/><path d="m278.03 152.85c5.301-11.806 8.449-27.491 9.773-42.657.373-4.273-2.788-8.039-7.061-8.412-4.267-.368-8.039 2.788-8.412 7.06-2.803 32.101-11.988 46.515-15.822 47.748 7.54-.056 14.782-1.364 21.522-3.739z"/></g></g></g><path d="m330.834 106.9h-149.668c-4.418 0-8-3.582-8-8v-33.7c0-4.418 3.582-8 8-8h149.668c4.418 0 8 3.582 8 8v33.7c0 4.418-3.582 8-8 8z" fill="#f9f5f3"/><path d="m330.55 57.2h-23.815c4.575 0 8.283 3.709 8.283 8.283v33.134c0 4.575-3.709 8.283-8.283 8.283h23.815c4.575 0 8.283-3.709 8.283-8.283v-33.134c.001-4.574-3.708-8.283-8.283-8.283z" fill="#f9eae0"/></g></g><g><path d="m479.933 281.634h-50.767v-33.917c0-14.696-9.854-27.126-23.3-31.052 9.246-8.904 15.016-21.395 15.016-35.215 0-26.973-21.944-48.917-48.917-48.917s-48.917 21.944-48.917 48.917c0 13.82 5.77 26.31 15.016 35.215-13.445 3.926-23.299 16.355-23.299 31.052v33.917h-117.532v-33.917c0-14.696-9.854-27.126-23.3-31.052 9.246-8.904 15.016-21.395 15.016-35.215 0-26.973-21.944-48.917-48.917-48.917s-48.916 21.944-48.916 48.917c0 13.82 5.77 26.31 15.016 35.215-13.445 3.925-23.299 16.355-23.299 31.052v33.917h-50.766c-8.547 0-15.5 6.953-15.5 15.5v17.132c0 8.547 6.953 15.5 15.5 15.5h17.633v166.734c0 8.547 6.953 15.5 15.5 15.5h48.333c4.142 0 7.5-3.357 7.5-7.5s-3.358-7.5-7.5-7.5h-48.333c-.276 0-.5-.225-.5-.5v-166.734h302.968c4.142 0 7.5-3.357 7.5-7.5s-3.358-7.5-7.5-7.5h-310.468-25.133c-.276 0-.5-.225-.5-.5v-17.132c0-.275.224-.5.5-.5h447.866c.276 0 .5.225.5.5v17.132c0 .275-.224.5-.5.5h-25.133-57.058c-4.142 0-7.5 3.357-7.5 7.5s3.358 7.5 7.5 7.5h49.558v166.734c0 .275-.224.5-.5.5h-303.267c-4.142 0-7.5 3.357-7.5 7.5s3.358 7.5 7.5 7.5h303.267c8.547 0 15.5-6.953 15.5-15.5v-166.734h17.633c8.547 0 15.5-6.953 15.5-15.5v-17.132c0-8.547-6.953-15.5-15.5-15.5zm-103.535-51.267-4.431 8.862-4.431-8.862zm-4.432-82.834c18.702 0 33.917 15.215 33.917 33.917s-15.215 33.917-33.917 33.917-33.917-15.215-33.917-33.917c.001-18.702 15.216-33.917 33.917-33.917zm-42.199 100.184c0-9.566 7.783-17.35 17.35-17.35h3.648l14.494 28.987c1.27 2.54 3.867 4.146 6.708 4.146s5.438-1.605 6.708-4.146l14.494-28.987h3.648c9.567 0 17.35 7.783 17.35 17.35v33.916h-84.4zm-185.302-17.35-4.431 8.862-4.431-8.862zm-4.432-82.834c18.702 0 33.917 15.215 33.917 33.917s-15.215 33.917-33.917 33.917-33.916-15.215-33.916-33.917 15.215-33.917 33.916-33.917zm-42.199 100.184c0-9.566 7.783-17.35 17.35-17.35h3.648l14.494 28.987c1.27 2.541 3.867 4.146 6.708 4.146s5.438-1.604 6.708-4.146l14.494-28.987h3.648c9.567 0 17.35 7.783 17.35 17.35v33.916h-84.4z"/><path d="m321.483 413.383c0-36.107-29.375-65.482-65.483-65.482s-65.483 29.375-65.483 65.482c0 36.108 29.376 65.484 65.483 65.484s65.483-29.376 65.483-65.484zm-115.966 0c0-27.836 22.647-50.482 50.483-50.482s50.483 22.647 50.483 50.482c0 27.837-22.647 50.484-50.483 50.484s-50.483-22.647-50.483-50.484z"/><path d="m288.35 413.383c0-17.838-14.512-32.35-32.35-32.35s-32.35 14.512-32.35 32.35 14.512 32.351 32.35 32.351 32.35-14.513 32.35-32.351zm-49.7 0c0-9.566 7.783-17.35 17.35-17.35s17.35 7.783 17.35 17.35-7.783 17.351-17.35 17.351-17.35-7.784-17.35-17.351z"/><path d="m181.167 114.4h5.088c10.088 29.33 37.657 49.405 69.082 49.685.224.008.446.014.664.014s.44-.005.664-.014c31.426-.28 58.993-20.355 69.081-49.685h5.089c8.547 0 15.5-6.953 15.5-15.5v-33.7c0-8.547-6.953-15.5-15.5-15.5h-5.088c-10.089-29.331-37.657-49.406-69.083-49.686-.224-.009-.446-.014-.664-.014s-.44.005-.664.014c-31.426.28-58.994 20.356-69.081 49.686h-5.088c-8.547 0-15.5 6.953-15.5 15.5v33.7c0 8.547 6.953 15.5 15.5 15.5zm21.192 0h22.908c1.617 11.675 4.38 21.982 8.106 30.171-13.654-5.691-24.852-16.403-31.014-30.171zm53.641 34.7c-4.02 0-11.997-11.598-15.572-34.699h31.144c-3.576 23.101-11.552 34.699-15.572 34.699zm22.627-4.529c3.726-8.189 6.489-18.496 8.106-30.171h22.908c-6.163 13.768-17.36 24.48-31.014 30.171zm31.014-94.871h-22.909c-1.617-11.676-4.38-21.983-8.106-30.172 13.656 5.692 24.852 16.404 31.015 30.172zm-53.641-34.7c4.019 0 11.996 11.598 15.572 34.7h-31.144c3.575-23.102 11.552-34.7 15.572-34.7zm-22.626 4.528c-3.726 8.189-6.49 18.496-8.107 30.172h-22.908c6.163-13.768 17.36-24.481 31.015-30.172zm-52.707 45.672c0-.275.224-.5.5-.5h50.755c.007 0 .013.001.02.001s.014-.001.021-.001h48.042.034 40.124c.004 0 .008.001.012.001.005 0 .01-.001.016-.001h10.645c.276 0 .5.225.5.5v33.7c0 .275-.224.5-.5.5h-50.768c-.028 0-.056 0-.085 0h-47.959c-.028 0-.056 0-.084 0h-50.771c-.276 0-.5-.225-.5-.5v-33.7z"/></g></g></svg>