<svg xmlns="http://www.w3.org/2000/svg" width="47" height="52" fill="none" viewBox="0 0 47 52">
    <path fill="#fff" d="M21.183 8.953c2.224-.297 4.602.555 6.765 1.037.672-.243 1.183-.468 2.11-.265 1.065.233 1.923 1.532 2.523 2.37.63.884 1.392 3.715 1.07 5.187-.323 1.472-.544 2.482-1.359 3.864-1.055 1.79-.476 1.957-2.715 3.047-1.405.685-1.912 1.648-3.474 1.84-1.52.188-2.63 1.505-4.722.527-2.092-.979-3.756.31-4.881 0-.994-.218-2.057-2.45-2.876-3.06-.544-.405-1.127-.762-1.739-1.048-.48-.225-.832-.736-1.24-.959-1.08-.587-.404-2.15-.185-3.151.298-1.359.688-2.387 1.557-3.478.55-.69 1.28-1.279 1.784-1.973.558-.77 1.303-1.017 1.958-1.591 1.345-1.178 3.661-2.112 5.424-2.347z"/>
    <path stroke="#000" stroke-linecap="round" d="M28.029 10.008c-2.185-.479-4.595-1.356-6.846-1.055-1.763.235-4.08 1.17-5.424 2.347-.655.574-1.4.822-1.958 1.591-.504.694-1.233 1.282-1.784 1.973-.87 1.091-1.26 2.12-1.557 3.477-.22 1.002-.895 2.565.184 3.152.41.223.761.734 1.241.959.612.286 1.195.642 1.739 1.047.82.61 1.882 2.843 2.876 3.06 1.125.312 2.79-.978 4.881 0 2.092.98 3.201-.338 4.722-.525 1.562-.193 2.07-1.156 3.474-1.84 2.239-1.09 1.66-1.257 2.715-3.047.815-1.383 1.036-2.393 1.359-3.865.322-1.472-.44-4.303-1.07-5.186-.6-.84-1.458-2.138-2.522-2.371-1.212-.265-1.712.2-2.789.48"/>
    <path fill="#FF8D8D" d="M21.392 15.92c1.666-2.448 6.322-3.12 7.81-.907 1.488 2.214.256 3.103-.756 4.691-1.011 1.59-3.306 1.612-4.986 2.784-1.839 1.283-1.763 2.03-3.397 3.487-1.634 1.456-3.697.217-5.31-1.352-1.414-1.378 1.414-4.495 2.766-4.704 1.352-.21 2.206-1.551 3.873-4z" style="mix-blend-mode:multiply"/>
    <path stroke="#000" stroke-linecap="round" d="M26.457 16.227c-.494.773-1.356 1.825-2.239 2.055m-5.562 2.479c-.27 1.03-1.612 1.778-2.592 2.033"/>
    <path fill="#fff" d="M12.24 14.835c.222.35-.244.825-.082 2.421.162 1.596.054 2.093-.626 2.859s-.352 1.609-1.438 1.891c-1.099.286-.542 1.262-2.28 1.062-1.738-.2-.698-.277-2.333-1.032-.813-.375-2.063.069-2.822-1.138-.76-1.207.897-1.759 2.986-1.947 2.423-.219 2.286-1.446 3.094-2.444.836-1.03 1.25-3.368 2.118-2.657.868.71 1.384.985 1.384.985zM22.041 4.854c-.617 1.793-2.02 3.396-.433 4.314 0 0 1.093 1.033 2.276 1.293 1.183.259 2.873-.958 3.39-.051.517.906 1.206 2.89 2.363 1.83.314-.204.771-.962.848-1.311.182-.83.017-1.318-.087-2.163-.334-.97-.47-2.011-2.496-2.628-.723-.425-1.891-1.446-2.713-1.634-.77-.177-1.531-1.213-1.89-.719-.319.44-1.05.465-1.258 1.07z"/>
    <path stroke="#000" stroke-linecap="round" d="M12.24 14.835c.222.35-.244.825-.082 2.421.162 1.596.054 2.093-.626 2.859s-.352 1.609-1.438 1.891c-1.099.286-.542 1.262-2.28 1.062-1.738-.2-.698-.277-2.333-1.032-.813-.375-2.063.069-2.822-1.138-.76-1.207.897-1.759 2.986-1.947 2.423-.219 2.286-1.446 3.094-2.444.836-1.03 1.25-3.368 2.118-2.657.868.71 1.384.985 1.384.985zM22.041 4.854c-.617 1.793-2.02 3.396-.433 4.314 0 0 1.093 1.033 2.276 1.293 1.183.259 2.873-.958 3.39-.051.517.906 1.206 2.89 2.363 1.83.314-.204.771-.962.848-1.311.182-.83.017-1.318-.087-2.163-.334-.97-.47-2.011-2.496-2.628-.723-.425-1.891-1.446-2.713-1.634-.77-.177-1.531-1.213-1.89-.719-.319.44-1.05.465-1.258 1.07z"/>
    <path fill="#000" stroke="#000" stroke-linecap="round" d="M21.36 22.54c-.257-.763.486-.385 2.04-1.325 1.554-.941 1.157 1.628.389 2.059-.77.431-2.11.22-2.43-.734z"/>
    <path fill="#EDF2E3" stroke="#000" d="M4.177 26.114c2.458 1.84 4.326 3.364 5.148 6.079.807 2.662-1.857 4.781 2.731 8.635 4.608 3.871 4.816 3.101 8.354 4.994 3.434 1.837 3.8 2.383 6.445-.927 2.33-2.915 4.104-4.595 4.573-5.604 1.174-2.522.649-3.503.386-3.993-.262-.49-3.344-3.89-5.41-6.57-2.067-2.68-4.133-5.36-8.057-3.26-4.414 2.364-5.976-.081-8.021-2.015-1.047-.99-1.441-1.382-1.804-2.19.648-.978-.514-1.582-1.05-1.962-1.016-.718-1.997-.193-3.434 1.839-1.285 1.817-3.889 3.344-1.857 4.78 1.625 1.15 1.833.281 1.996.194z"/>
    <path stroke="#26611D" stroke-linecap="round" stroke-linejoin="round" d="M13.05 33.952c.194-1.997 1.175-2.522 1.7-1.541l1.05 1.962m-1.471.788c.175.326.721.875 1.506.455s-.129 1.331-.684 2.26m3.855-4.589c.395-.304.962-.791 1.471-1.326m1.174-1.983c.016.555-.532 1.307-1.174 1.982m0 0c.24-.158.929-.084 1.769 1.486m1.7-1.541c-.263-.49-.887-1.42-1.279-1.21m-4.8 6.358c-.217 1.168-.211 3.142 1.54 1.7 2.19-1.804-1.085-3.206-1.54-1.7zm-.962-7.69c-.49.263-.159 3.24 1.313 2.453 1.471-.788 1.174-2.522.42-2.75-.752-.228-1.243.035-1.733.298z"/>
    <path fill="#fff" d="M45.5 27C43.9 17.8 35 17 34 17.5s-.75 2-1 2.5-1.265 2.883-2.5 3.5c-1.6.8-2 1.5-3 2s-3 1-3 1l5 6.18c-.314.16-.642.275-1 .32-3.2.4-3.5 3-1.5 4s20.1-.8 18.5-10z"/>
    <path stroke="#000" stroke-linecap="round" stroke-linejoin="round" d="M34.5 25c0 .676.215 4.442-2.5 6-.943.541-1.675 1.262-2.5 1.68m0 0c-.314.16-.642.275-1 .32-3.2.4-3.5 3-1.5 4s20.1-.8 18.5-10C43.9 17.8 35 17 34 17.5s-.75 2-1 2.5-1.265 2.883-2.5 3.5c-1.6.8-2 1.5-3 2s-3 1-3 1l5 6.18z"/>
    <path fill="#D3EEF0" d="M30.97 24.887c-.663-1.699-5.264-1.674-4.884-1.07.38.603 2.488.672 3.31 1.245.822.573 2.237 1.523 1.574-.175z"/>
</svg>
