<svg width="283" height="238" viewBox="0 0 83 38" fill="none" xmlns="http://www.w3.org/2000/svg">
<g id="dog-sleep-white">
<path id="tail" d="M71.8075 11.2657C71.3842 10.9482 69.4556 10.153 69.0176 10.7043L71.1186 14.804C71.8089 14.9223 73.3169 15.3428 73.826 16.0782C74.4625 16.9974 75.8828 17.263 75.352 18.3855C74.8212 19.5081 75.8824 19.825 76.1978 20.285C76.5132 20.745 75.594 21.3814 75.7354 22.3714C75.8061 22.8663 75.4526 23.927 74.9576 23.9977C74.4627 24.0684 73.4583 26.2322 75.1304 25.9933C77.2204 25.6947 79.6246 24.8461 79.3417 22.8662C79.0588 20.8863 82.4528 19.8963 81.18 18.0578C79.9072 16.2194 80.5522 13.4579 75.5627 12.2225C75.4053 12.0746 74.6976 12.2887 74.4852 12.319C74.1391 12.3685 73.6408 12.172 73.3264 12.0251C72.8095 11.7835 72.2707 11.6131 71.8075 11.2657Z" fill="white" stroke="black" stroke-linecap="round"/>
<path id="body-1" d="M42.1264 36.2303C41.11 36.2868 41.0001 34.7138 41.0001 33.9585C41.1911 32.6039 41.3741 31.5763 41.4273 30.4801C41.5001 28.9801 40.5001 25.9395 40.5001 25.0459C40.5001 23.4801 39.6848 22.264 39.0001 20.9294C38.0001 18.9801 36.5001 18.9801 35.5001 18.9801C34.5001 18.9801 33.5001 18.157 32.0001 18.9801C30.8001 19.6386 28.9646 20.1528 28.4469 20.3275C27.1312 20.7117 24.3999 21.2802 24 20.4801L28.4469 5.47324C29.4646 4.8089 32.1001 3.5802 34.5001 3.9802C36.9001 4.3802 43.1668 4.81347 46.0001 4.9801H52.5001C53.5001 4.9801 56.5001 3.9801 58.5001 4.9801L58.5244 4.99225C60.5163 5.98818 62.5001 6.9801 63.7476 6.9801C65.0001 6.9801 67.0001 6.9801 68.0001 8.4801C69.0001 9.9801 71.0726 9.89345 71.7863 13.6868V16.1334C71.7863 16.9202 71.4368 17.3935 71.4368 18.2304C71.4368 18.933 70.7378 19.544 70.7378 20.3275C70.7378 21.1916 70.3883 21.8863 70.3883 22.7741V25.2207C70.3883 25.6897 70.0637 25.9949 70.0388 26.444C70.0177 26.823 70.1242 27.2808 70.0194 27.6478C69.9149 28.0133 69.526 28.515 69.5001 28.9801C69.4777 29.3832 69.4099 29.3614 69.3203 29.7643C69.169 30.4452 68.6407 31.2152 68.6407 31.8614C68.6407 32.4988 67.8675 33.339 67.5922 33.9585C67.2111 34.8159 66.6591 35.572 66.1941 36.3856C65.8939 36.9112 63.5871 35.2317 63.4175 34.6381C63.3009 34.23 63.7476 34.0338 63.7476 33.609V32.3857V29.9391C63.7476 28.3021 63.7855 26.5292 63.1262 25.0459C62.8068 24.3273 62.9437 23.5168 62.4272 22.8712C61.9983 22.335 61.8012 21.4495 61.2233 20.9294C60.8348 20.5798 60.042 20.4038 59.6311 20.0751C59.0697 19.626 58.185 19.8032 57.4563 19.8032C55.6376 19.911 51.8001 20.0617 51.0001 19.8032C50.0001 19.4801 47.5001 21.9801 46.5001 24.4801C45.4495 27.1065 46.5001 28.9801 45.5001 30.9801C44.7953 32.3898 45.0487 34.198 44.5729 35.1041C43.8299 35.5169 43.0163 36.1809 42.1264 36.2303Z" fill="white" stroke="black" stroke-linecap="round">
    <animate repeatCount="indefinite" attributeName="d" dur="2s" values="M42.1264 36.2303C41.11 36.2868 41.0001 34.7138 41.0001 33.9585C41.1911 32.6039 41.3741 31.5763 41.4273 30.4801C41.5001 28.9801 40.5001 25.9395 40.5001 25.0459C40.5001 23.4801 39.6848 22.264 39.0001 20.9294C38.0001 18.9801 36.5001 18.9801 35.5001 18.9801C34.5001 18.9801 33.5001 18.157 32.0001 18.9801C30.8001 19.6386 28.9646 20.1528 28.4469 20.3275C27.1312 20.7117 24.3999 21.2802 24 20.4801L28.4469 5.47324C29.4646 4.8089 32.1001 3.5802 34.5001 3.9802C36.9001 4.3802 43.1668 4.81347 46.0001 4.9801H52.5001C53.5001 4.9801 56.5001 3.9801 58.5001 4.9801L58.5244 4.99225C60.5163 5.98818 62.5001 6.9801 63.7476 6.9801C65.0001 6.9801 67.0001 6.9801 68.0001 8.4801C69.0001 9.9801 71.0726 9.89345 71.7863 13.6868V16.1334C71.7863 16.9202 71.4368 17.3935 71.4368 18.2304C71.4368 18.933 70.7378 19.544 70.7378 20.3275C70.7378 21.1916 70.3883 21.8863 70.3883 22.7741V25.2207C70.3883 25.6897 70.0637 25.9949 70.0388 26.444C70.0177 26.823 70.1242 27.2808 70.0194 27.6478C69.9149 28.0133 69.526 28.515 69.5001 28.9801C69.4777 29.3832 69.4099 29.3614 69.3203 29.7643C69.169 30.4452 68.6407 31.2152 68.6407 31.8614C68.6407 32.4988 67.8675 33.339 67.5922 33.9585C67.2111 34.8159 66.6591 35.572 66.1941 36.3856C65.8939 36.9112 63.5871 35.2317 63.4175 34.6381C63.3009 34.23 63.7476 34.0338 63.7476 33.609V32.3857V29.9391C63.7476 28.3021 63.7855 26.5292 63.1262 25.0459C62.8068 24.3273 62.9437 23.5168 62.4272 22.8712C61.9983 22.335 61.8012 21.4495 61.2233 20.9294C60.8348 20.5798 60.042 20.4038 59.6311 20.0751C59.0697 19.626 58.185 19.8032 57.4563 19.8032C55.6376 19.911 51.8001 20.0617 51.0001 19.8032C50.0001 19.4801 47.5001 21.9801 46.5001 24.4801C45.4495 27.1065 46.5001 28.9801 45.5001 30.9801C44.7953 32.3898 45.0487 34.198 44.5729 35.1041C43.8299 35.5169 43.0163 36.1809 42.1264 36.2303Z;
    M42.1264 36.2303C41.11 36.2867 41.0001 34.7138 41.0001 33.9584C41.1911 32.6039 41.3741 31.5762 41.4273 30.4801C41.5001 28.9801 40.5001 25.9394 40.5001 25.0459C40.5001 23.4801 39.6848 22.264 39.0001 20.9294C38.0001 18.9801 36.5001 18.9801 35.5001 18.9801C34.5001 18.9801 33.5001 18.1569 32.0001 18.9801C30.8001 19.6386 28.9646 20.1527 28.4469 20.3275C27.1312 20.7117 24.3999 21.2801 24 20.4801L28.4469 5.47322C29.4646 4.80887 32 3.50001 34.5 2.99998C36.9995 2.50005 42.6646 2.83322 45.4985 2.99989L45.5001 2.99998C47.3335 2.99998 52.2 3.5 53 3.5C54 3.5 56.329 3.96465 58.5 4.5C60.4999 4.99314 64 6 64 6C64 6 67.0001 6.98007 68.0001 8.48007C69.0001 9.98007 71.0726 9.89342 71.7863 13.6867V16.1333C71.7863 16.9201 71.4368 17.3935 71.4368 18.2304C71.4368 18.933 70.7378 19.544 70.7378 20.3275C70.7378 21.1915 70.3883 21.8863 70.3883 22.7741V25.2206C70.3883 25.6897 70.0637 25.9949 70.0388 26.4439C70.0177 26.8229 70.1242 27.2808 70.0194 27.6478C69.9149 28.0133 69.526 28.515 69.5001 28.9801C69.4777 29.3832 69.4099 29.3614 69.3203 29.7643C69.169 30.4451 68.6407 31.2152 68.6407 31.8614C68.6407 32.4987 67.8675 33.339 67.5922 33.9584C67.2111 34.8159 66.6591 35.572 66.1941 36.3856C65.8939 36.9111 63.5871 35.2317 63.4175 34.6381C63.3009 34.23 63.7476 34.0338 63.7476 33.6089V32.3856V29.9391C63.7476 28.3021 63.7855 26.5292 63.1262 25.0459C62.8068 24.3272 62.9437 23.5167 62.4272 22.8711C61.9983 22.335 61.8012 21.4495 61.2233 20.9294C60.8348 20.5797 60.042 20.4037 59.6311 20.0751C59.0697 19.6259 58.185 19.8032 57.4563 19.8032C55.6376 19.9109 51.8001 20.0617 51.0001 19.8032C50.0001 19.4801 47.5001 21.9801 46.5001 24.4801C45.4495 27.1065 46.5001 28.9801 45.5001 30.9801C44.7953 32.3897 45.0487 34.1979 44.5729 35.1041C43.8299 35.5169 43.0163 36.1808 42.1264 36.2303Z; 
    M42.1264 36.2303C41.11 36.2868 41.0001 34.7138 41.0001 33.9585C41.1911 32.6039 41.3741 31.5763 41.4273 30.4801C41.5001 28.9801 40.5001 25.9395 40.5001 25.0459C40.5001 23.4801 39.6848 22.264 39.0001 20.9294C38.0001 18.9801 36.5001 18.9801 35.5001 18.9801C34.5001 18.9801 33.5001 18.157 32.0001 18.9801C30.8001 19.6386 28.9646 20.1528 28.4469 20.3275C27.1312 20.7117 24.3999 21.2802 24 20.4801L28.4469 5.47324C29.4646 4.8089 32.1001 3.5802 34.5001 3.9802C36.9001 4.3802 43.1668 4.81347 46.0001 4.9801H52.5001C53.5001 4.9801 56.5001 3.9801 58.5001 4.9801L58.5244 4.99225C60.5163 5.98818 62.5001 6.9801 63.7476 6.9801C65.0001 6.9801 67.0001 6.9801 68.0001 8.4801C69.0001 9.9801 71.0726 9.89345 71.7863 13.6868V16.1334C71.7863 16.9202 71.4368 17.3935 71.4368 18.2304C71.4368 18.933 70.7378 19.544 70.7378 20.3275C70.7378 21.1916 70.3883 21.8863 70.3883 22.7741V25.2207C70.3883 25.6897 70.0637 25.9949 70.0388 26.444C70.0177 26.823 70.1242 27.2808 70.0194 27.6478C69.9149 28.0133 69.526 28.515 69.5001 28.9801C69.4777 29.3832 69.4099 29.3614 69.3203 29.7643C69.169 30.4452 68.6407 31.2152 68.6407 31.8614C68.6407 32.4988 67.8675 33.339 67.5922 33.9585C67.2111 34.8159 66.6591 35.572 66.1941 36.3856C65.8939 36.9112 63.5871 35.2317 63.4175 34.6381C63.3009 34.23 63.7476 34.0338 63.7476 33.609V32.3857V29.9391C63.7476 28.3021 63.7855 26.5292 63.1262 25.0459C62.8068 24.3273 62.9437 23.5168 62.4272 22.8712C61.9983 22.335 61.8012 21.4495 61.2233 20.9294C60.8348 20.5798 60.042 20.4038 59.6311 20.0751C59.0697 19.626 58.185 19.8032 57.4563 19.8032C55.6376 19.911 51.8001 20.0617 51.0001 19.8032C50.0001 19.4801 47.5001 21.9801 46.5001 24.4801C45.4495 27.1065 46.5001 28.9801 45.5001 30.9801C44.7953 32.3898 45.0487 34.198 44.5729 35.1041C43.8299 35.5169 43.0163 36.1809 42.1264 36.2303Z;" fill="freeze" 
             calcMode="spline" keySplines="0.4 0 0.2 1; 0.4 0 0.2 1"/>
    </path>

<g id="face">
<path d="M17.3768 6.59935C19.554 5.84642 22.1411 6.16406 24.43 6.17202C25.0546 5.79733 25.52 5.47314 26.501 5.47314C27.6259 5.47314 28.7791 6.54074 29.5691 7.2207C30.401 7.93676 31.7948 10.4974 31.7948 11.9801C31.7948 13.4628 31.7948 14.4801 31.2784 15.9801C30.6097 17.9227 31.2302 17.9609 29.2129 19.4801C27.9467 20.4337 27.6482 21.4661 26.1147 21.9801C24.6217 22.4805 23.7938 23.9801 21.4673 23.4801C19.1409 22.9801 18.0234 22.5422 16.82 22.4801C15.7687 22.4801 13.9266 22.5858 12.9651 22.1721C12.3268 21.8974 11.6606 21.6778 10.9798 21.5313C10.446 21.4164 9.97754 20.9988 9.51594 20.8711C8.2978 20.5341 8.6336 18.8896 8.6336 17.8808C8.6336 16.5127 8.79982 15.4424 9.43573 14.2109C9.83848 13.431 10.4445 12.7121 10.7993 11.9391C11.1928 11.082 11.8893 10.6873 12.4236 9.99738C13.5193 8.58282 15.65 7.19649 17.3768 6.59935Z" fill="white"/>
<path d="M24.5157 6.17217C22.2059 6.17217 19.5813 5.837 17.3768 6.59935C15.65 7.19649 13.5193 8.58282 12.4236 9.99738C11.8893 10.6873 11.1928 11.082 10.7993 11.9391C10.4445 12.7121 9.83848 13.431 9.43573 14.2109C8.79982 15.4424 8.6336 16.5127 8.6336 17.8808C8.6336 18.8896 8.2978 20.5341 9.51594 20.8711C9.97754 20.9988 10.446 21.4164 10.9798 21.5313C11.6606 21.6778 12.3268 21.8974 12.9651 22.1721C13.9266 22.5858 15.7687 22.4801 16.82 22.4801C18.0234 22.5422 19.1409 22.9801 21.4673 23.4801C23.7938 23.9801 24.6217 22.4805 26.1147 21.9801C27.6482 21.4661 27.9467 20.4337 29.2129 19.4801C31.2302 17.9609 30.6097 17.9227 31.2784 15.9801C31.7948 14.4801 31.7948 13.4628 31.7948 11.9801C31.7948 10.4974 30.401 7.93676 29.5691 7.2207C28.7791 6.54074 27.6259 5.47314 26.501 5.47314C25.2204 5.47314 24.8184 6.02561 23.7938 6.52168" stroke="black" stroke-linecap="round"/>
</g>
<g id="blush">
<path d="M19.9181 12.9801C20.951 10.4801 25.0819 8.98014 26.8926 10.6608C28.7033 12.3415 27.7536 13.371 27.1475 14.9801C26.5413 16.5893 24.4433 17.0539 23.1401 18.4218C21.7138 19.9191 21.934 20.5693 20.7308 22.1814C19.5277 23.7935 17.3864 23.0909 15.5922 22.0071C14.0175 21.0558 15.98 17.7347 17.1766 17.2869C18.3731 16.8391 18.8853 15.48 19.9181 12.9801Z" fill="#FF8D8D" style="mix-blend-mode:multiply"/>
</g>
<path id="eyes" d="M24.3049 12.4801C23.9768 13.3272 23.3397 14.5202 22.5001 14.9267M17.4365 18.4801C17.3914 19.5272 16.2037 20.5285 15.2709 20.9801" stroke="black" stroke-linecap="round"/>
<g id="ear">
<path d="M9.65491 14.1356C9.95542 14.4265 9.59063 14.9802 10.107 16.4802C10.6234 17.9802 10.6234 18.4802 10.107 19.3593C9.59063 20.2384 10.107 20.9802 9.07426 21.4802C8.0292 21.9861 8.80671 22.8069 7.00877 22.9802C5.21083 23.1534 6.24361 22.8615 4.42691 22.4802C3.52416 22.2907 2.36152 22.9801 1.32878 21.9801C0.296031 20.9801 1.84519 20.101 3.91058 19.4801C6.30682 18.7598 5.89697 17.6093 6.4924 16.4802C7.10758 15.3136 7.00877 12.9801 8.04152 13.4801C9.07426 13.9801 9.65491 14.1356 9.65491 14.1356Z" fill="white"/>
<path d="M17.3364 2.48007C17.1101 4.33237 16.0492 6.1687 17.8527 6.71752C17.8527 6.71752 19.1837 7.48011 20.4345 7.48011C21.6854 7.48011 23.1208 5.95493 23.8432 6.71752C24.5655 7.48011 25.6982 9.24224 26.631 7.98011C26.9033 7.71643 27.1968 6.89212 27.1968 6.54063C27.1968 5.70388 26.9225 5.27038 26.631 4.4801C26.0798 3.61786 25.7124 2.64612 23.5328 2.48007C22.709 2.22367 21.3049 1.48791 20.4346 1.48012C19.6194 1.47282 18.6218 0.636952 18.3691 1.18769C18.1444 1.67726 17.4128 1.85491 17.3364 2.48007Z" fill="white"/>
<path d="M9.65491 14.1356C9.95542 14.4265 9.59063 14.9802 10.107 16.4802C10.6234 17.9802 10.6234 18.4802 10.107 19.3593C9.59063 20.2384 10.107 20.9802 9.07426 21.4802C8.0292 21.9861 8.80671 22.8069 7.00877 22.9802C5.21083 23.1534 6.24361 22.8615 4.42691 22.4802C3.52416 22.2907 2.36152 22.9801 1.32878 21.9801C0.296031 20.9801 1.84519 20.101 3.91058 19.4801C6.30682 18.7598 5.89697 17.6093 6.4924 16.4802C7.10758 15.3136 7.00877 12.9801 8.04152 13.4801C9.07426 13.9801 9.65491 14.1356 9.65491 14.1356Z" stroke="black" stroke-linecap="round"/>
<path d="M17.3364 2.48007C17.1101 4.33237 16.0492 6.1687 17.8527 6.71752C17.8527 6.71752 19.1837 7.48011 20.4345 7.48011C21.6854 7.48011 23.1208 5.95493 23.8432 6.71752C24.5655 7.48011 25.6982 9.24224 26.631 7.98011C26.9033 7.71643 27.1968 6.89212 27.1968 6.54063C27.1968 5.70388 26.9225 5.27038 26.631 4.4801C26.0798 3.61786 25.7124 2.64612 23.5328 2.48007C22.709 2.22367 21.3049 1.48791 20.4346 1.48012C19.6194 1.47282 18.6218 0.636952 18.3691 1.18769C18.1444 1.67726 17.4128 1.85491 17.3364 2.48007Z" stroke="black" stroke-linecap="round"/>
</g>
<path id="nose" d="M20.5568 19.6216C20.1294 18.9419 20.9628 19.1487 22.3228 17.9176C23.6828 16.6864 23.8501 19.2388 23.1698 19.8151C22.4896 20.3914 21.091 20.4711 20.5568 19.6216Z" fill="black" stroke="black" stroke-linecap="round"/>
<path id="spit" d="M31.8831 21.467C30.8388 19.9745 26.2029 20.967 26.7193 21.467C27.2357 21.967 29.3776 21.5893 30.3339 21.967C31.2901 22.3447 32.9274 22.9595 31.8831 21.467Z" fill="#D3EEF0"/>
</g>
</svg>