<svg width="200" height="200" fill="none" xmlns="http://www.w3.org/2000/svg">
    <path d="M0 100C0 44.772 44.772 0 100 0s100 44.772 100 100-44.772 100-100 100S0 155.228 0 100z" fill="#98DCE6"/>
    <path d="M102.861 39.489c-1.258-.31-2.023-1.592-1.71-2.863l.757-3.07c.313-1.27 1.587-2.05 2.845-1.74.458.109 4.743.357 5.5-2.712.378-1.535-.762-3.444-3.039-4.005-1.853-.457-3.415.786-3.604 1.553-.313 1.271-1.587 2.05-2.845 1.74-1.257-.31-2.023-1.592-1.71-2.863.923-3.743 5.18-6.048 9.294-5.034 6.073 1.498 7.219 6.649 6.27 10.499-.785 3.18-3.112 5.184-6.556 5.643-.75.101-1.47.115-2.105.09l-.252 1.022c-.314 1.271-1.587 2.05-2.845 1.74zM101.348 45.627c1.257.31 2.531-.47 2.844-1.74.314-1.272-.452-2.553-1.709-2.864-1.258-.31-2.532.47-2.845 1.74-.314 1.272.452 2.554 1.71 2.864z" fill="#fff"/>
    <path d="M102.861 39.489c-1.258-.31-2.023-1.592-1.71-2.863l.757-3.07c.313-1.27 1.587-2.05 2.845-1.74.458.109 4.743.357 5.5-2.712.378-1.535-.762-3.444-3.039-4.005-1.853-.457-3.415.786-3.604 1.553-.313 1.271-1.587 2.05-2.845 1.74-1.257-.31-2.023-1.592-1.71-2.863.923-3.743 5.18-6.048 9.294-5.034 6.073 1.498 7.219 6.649 6.27 10.499-.785 3.18-3.112 5.184-6.556 5.643-.75.101-1.47.115-2.105.09l-.252 1.022c-.314 1.271-1.587 2.05-2.845 1.74zM101.348 45.627c1.257.31 2.531-.47 2.844-1.74.314-1.272-.452-2.553-1.709-2.864-1.258-.31-2.532.47-2.845 1.74-.314 1.272.452 2.554 1.71 2.864z" stroke="#000"/>
    <path d="M115.429 45.866a1.686 1.686 0 0 1-.062-2.383l1.547-1.61a1.685 1.685 0 0 1 2.383-.033c.249.233 2.834 1.947 4.381.337.773-.806.732-2.394-.492-3.57-.995-.956-2.404-.761-2.791-.358a1.686 1.686 0 0 1-2.384.032 1.686 1.686 0 0 1-.063-2.383c1.887-1.964 5.349-1.83 7.559.294 3.262 3.133 2.172 6.717.231 8.737-1.604 1.67-3.757 2.053-6.066 1.08a8.936 8.936 0 0 1-1.343-.713l-.516.537a1.686 1.686 0 0 1-2.384.033zM112.335 49.087a1.686 1.686 0 0 0 2.384-.033 1.686 1.686 0 0 0-.063-2.383 1.686 1.686 0 0 0-2.384.033 1.685 1.685 0 0 0 .063 2.383z" fill="#fff"/>
    <path d="M115.429 45.866a1.686 1.686 0 0 1-.062-2.383l1.547-1.61a1.685 1.685 0 0 1 2.383-.033c.249.233 2.834 1.947 4.381.337.773-.806.732-2.394-.492-3.57-.995-.956-2.404-.761-2.791-.358a1.686 1.686 0 0 1-2.384.032 1.686 1.686 0 0 1-.063-2.383c1.887-1.964 5.349-1.83 7.559.294 3.262 3.133 2.172 6.717.231 8.737-1.604 1.67-3.757 2.053-6.066 1.08a8.936 8.936 0 0 1-1.343-.713l-.516.537a1.686 1.686 0 0 1-2.384.033zM112.335 49.087a1.686 1.686 0 0 0 2.384-.033 1.686 1.686 0 0 0-.063-2.383 1.686 1.686 0 0 0-2.384.033 1.685 1.685 0 0 0 .063 2.383z" stroke="#000"/>
    <path d="M87.406 39.654c-.9.26-1.838-.249-2.096-1.138l-.62-2.145a1.686 1.686 0 0 1 1.163-2.08c.326-.098 3.103-1.48 2.482-3.625-.31-1.073-1.708-1.831-3.337-1.36-1.326.385-1.862 1.702-1.707 2.239a1.686 1.686 0 0 1-1.163 2.08c-.9.261-1.838-.248-2.095-1.137-.758-2.616 1.09-5.547 4.033-6.4 4.345-1.257 6.903 1.48 7.683 4.17.643 2.223-.101 4.28-2.098 5.793-.434.33-.881.596-1.289.807l.207.715a1.686 1.686 0 0 1-1.163 2.08zM88.648 43.944c.9-.26 1.42-1.192 1.163-2.08a1.686 1.686 0 0 0-2.095-1.138c-.9.26-1.42 1.192-1.163 2.08a1.686 1.686 0 0 0 2.095 1.138z" fill="#fff"/>
    <path d="M87.406 39.654c-.9.26-1.838-.249-2.096-1.138l-.62-2.145a1.686 1.686 0 0 1 1.163-2.08c.326-.098 3.103-1.48 2.482-3.625-.31-1.073-1.708-1.831-3.337-1.36-1.326.385-1.862 1.702-1.707 2.239a1.686 1.686 0 0 1-1.163 2.08c-.9.261-1.838-.248-2.095-1.137-.758-2.616 1.09-5.547 4.033-6.4 4.345-1.257 6.903 1.48 7.683 4.17.643 2.223-.101 4.28-2.098 5.793-.434.33-.881.596-1.289.807l.207.715a1.686 1.686 0 0 1-1.163 2.08zM88.648 43.944c.9-.26 1.42-1.192 1.163-2.08a1.686 1.686 0 0 0-2.095-1.138c-.9.26-1.42 1.192-1.163 2.08a1.686 1.686 0 0 0 2.095 1.138z" stroke="#000"/>
    <path d="M112.651 59.337c3.323 2.269 3.153 3.357 4.126 6.045.576 1.593.796 2.56.857 4.253.077 2.134-2.28 6.827-2.409 8.62-.136 1.889-.761 4.089-2.814 5.614-2.054 1.525-4.739 1.682-7.421 2.11-4.005.64-5.96.46-9.643-.064-3.668-.521-5.447-1.025-9.163-2.607-2.25-.957-4.065-.788-5.613-2.814-1.49-1.949-1.192-2.328-1.743-4.718-.537-2.325.159-4.579-.257-6.336-.276-1.167.64-5.002.64-5.002s1.763-4.293 3.823-6.3c1.812-1.767 4.383-2.786 6.742-3.172 1.495-.245 1.318-.122 2.754-.426 1.591-.336 8.765 1.152 10.27 1.182 3.086.063 7.248 1.838 9.851 3.615z" fill="#fff" stroke="#000" stroke-linecap="round"/>
    <path d="M103.095 68.067c4.524-1.141 9.332 1.76 9.22 7.006-.112 5.245-5.357 5.133-7.212 5.66-3.89 1.108-5.929-2.208-9.164-2.606-3.54-.435-5.485.952-8.955.944-3.47-.009-6.461-2.975-5.661-7.213 1.12-5.933 5.677-6.828 9.755-5.181 4.078 1.647 7.492 2.53 12.017 1.39z" fill="#FF8D8D" style="mix-blend-mode:multiply"/>
    <path d="M84.845 53.8c.348-1.689-1.762-5.119-6.235-3.928-5.592 1.489-6.114 4.023-8.649 3.5-2.534-.523-4.72-2.735-5.739-2.065-1.019.67-.522 2.534-.697 3.379-.174.845 5.551 1.812 4.787 3.963-.764 2.151-4.094 2.766.577 4.19 4.67 1.422 2.856 3.23 5.739 2.064 2.882-1.167-.523 2.534 5.417-.644 5.94-3.178 6.554-6.157 6.1-8.22-.456-2.064-1.65-.549-1.3-2.239zM123.555 58.265c-2.65-.596-2.344-4.007-5.069-1.046-3.405 3.7-7.776-.724-6.958 3.848.818 4.572 1.166 2.883 4.371 4.425 3.204 1.542 1.034 3.522 4.131 5.59 3.096 2.066-1.154 5.593 4.263 4.949 5.417-.644 4.223.871 6.758 1.394 2.534.523 3.553-.147 3.057-2.011s-1.837-3.902.026-4.398c1.864-.496.482-2.335-1.878-3.702-2.36-1.368.242-5.443-2.962-6.985-2.564-1.233-3.415-1.542-5.739-2.064z" fill="#fff"/>
    <path d="M84.845 53.8c.348-1.689-1.762-5.119-6.235-3.928-5.592 1.489-6.114 4.023-8.649 3.5-2.534-.523-4.72-2.735-5.739-2.065-1.019.67-.522 2.534-.697 3.379-.174.845 5.551 1.812 4.787 3.963-.764 2.151-4.094 2.766.577 4.19 4.67 1.422 2.856 3.23 5.739 2.064 2.882-1.167-.523 2.534 5.417-.644 5.94-3.178 6.554-6.157 6.1-8.22-.456-2.064-1.65-.549-1.3-2.239zM123.555 58.265c-2.65-.596-2.344-4.007-5.069-1.046-3.405 3.7-7.776-.724-6.958 3.848.818 4.572 1.166 2.883 4.371 4.425 3.204 1.542 1.034 3.522 4.131 5.59 3.096 2.066-1.154 5.593 4.263 4.949 5.417-.644 4.223.871 6.758 1.394 2.534.523 3.553-.147 3.057-2.011s-1.837-3.902.026-4.398c1.864-.496.482-2.335-1.878-3.702-2.36-1.368.242-5.443-2.962-6.985-2.564-1.233-3.415-1.542-5.739-2.064z" stroke="#000" stroke-linecap="round"/>
    <path d="M92.523 75.875c.122-1.38 1.051-.226 4.204-.498 3.153-.272.719 3.409-.817 3.49-1.536.082-3.54-1.268-3.387-2.992z" fill="#000" stroke="#000" stroke-linecap="round"/>
    <path d="M97.497 83.01c2.19-.258.228-5.727-.49-5.464-.718.262.064 2.743-.424 3.541-.489.797-1.276 2.181.914 1.923z" fill="#D3EEF0"/>
    <path d="m87.985 72.18-.13 1.212m16.438 1.148-.13 1.213" stroke="#000" stroke-width="2.5" stroke-linecap="round" stroke-linejoin="round"/>
    <path d="M41.056 115.76c0-.427-.007-.84-.02-1.24v-2.62c.013-.213.02-.427.02-.64v-.72c0-.773-.014-1.56-.04-2.36-.014-.8-.02-1.56-.02-2.28 0-.8-.007-1.46-.02-1.98 0-.52-.02-.947-.06-1.28a.798.798 0 0 1 .02-.4.753.753 0 0 1 .46-.48.987.987 0 0 1 .32-.1c.346-.027.6.047.76.22.173.16.26.373.26.64v.52c.013.2.02.427.02.68.013.933.02 1.793.02 2.58 0 .787.013 1.547.04 2.28H44.516c.24 0 .493-.007.76-.02.306 0 .533.08.68.24.146.147.22.327.22.54 0 .213-.08.407-.24.58a.894.894 0 0 1-.64.28c-.32.013-.667.02-1.04.02h-1.48v3.9c.013.48.02.96.02 1.44.013.467.02.927.02 1.38.013.453.02.867.02 1.24v.48c0 .173-.02.333-.06.48-.067.267-.18.433-.34.5-.147.08-.314.12-.5.12-.374 0-.62-.107-.74-.32a1.295 1.295 0 0 1-.18-.64l.04-3.04zm-6.84-12.1c0-.187.006-.36.02-.52.013-.16.053-.3.12-.42a.709.709 0 0 1 .28-.28c.133-.067.313-.1.54-.1.306 0 .526.1.66.3.146.2.213.533.2 1 0 .08-.007.173-.02.28v.3c0 .187-.007.373-.02.56v.46c-.027.293-.06.58-.1.86a8.297 8.297 0 0 1-.12.8c.253.707.513 1.367.78 1.98.266.6.533 1.18.8 1.74.28.547.56 1.073.84 1.58.293.507.593 1.02.9 1.54.12.24.153.48.1.72-.04.24-.127.407-.26.5-.24.147-.454.2-.64.16-.174-.053-.354-.193-.54-.42a5.69 5.69 0 0 1-.54-.74c-.2-.347-.427-.747-.68-1.2-.24-.453-.494-.933-.76-1.44-.254-.52-.5-1.04-.74-1.56-.347.96-.76 1.84-1.24 2.64s-1 1.58-1.56 2.34a.93.93 0 0 1-.28.28c-.12.08-.247.14-.38.18-.12.04-.247.053-.38.04a.598.598 0 0 1-.34-.2.817.817 0 0 1-.2-.36.91.91 0 0 1 0-.38c.04-.12.086-.233.14-.34a2.5 2.5 0 0 1 .2-.28c.946-1.387 1.693-2.793 2.24-4.22.546-1.427.873-3 .98-4.72v-1.08zm13.876.66c-.267-.013-.474-.067-.62-.16-.147-.093-.233-.273-.26-.54-.027-.2.04-.38.2-.54.16-.173.4-.273.72-.3.187-.013.467-.02.84-.02l1.16-.04 1.62-.04c.533-.027.953-.04 1.26-.04.146 0 .3.02.46.06.16.027.306.08.44.16.133.08.24.18.32.3.093.12.14.267.14.44 0 .2-.053.427-.16.68a22.988 22.988 0 0 1-1.8 3.4c.227.333.46.673.7 1.02.253.347.493.68.72 1 .24.307.46.593.66.86s.373.487.52.66c.146.187.227.4.24.64.013.24-.067.42-.24.54-.413.293-.84.227-1.28-.2a6.08 6.08 0 0 1-.48-.5 63.34 63.34 0 0 0-.62-.74 66.9 66.9 0 0 1-.66-.84c-.227-.307-.447-.607-.66-.9-.467.6-.967 1.173-1.5 1.72-.52.547-1.08 1.053-1.68 1.52-.32.24-.6.347-.84.32a.671.671 0 0 1-.52-.34c-.12-.213-.154-.42-.1-.62.067-.213.187-.393.36-.54a15.78 15.78 0 0 0 1.66-1.62c.52-.587.993-1.18 1.42-1.78.44-.613.826-1.213 1.16-1.8.333-.587.613-1.127.84-1.62.026-.027.033-.067.02-.12 0-.053-.053-.08-.16-.08-.28 0-.593.007-.94.02l-1.06.04c-.347 0-.687.007-1.02.02-.334 0-.62-.007-.86-.02zm9.4-1.86c-.014-.267.08-.467.28-.6.2-.133.413-.2.64-.2.227 0 .42.06.58.18.173.12.28.293.32.52.013.08.02.193.02.34v1.28c.013.2.02.42.02.66v.66c0 .56-.007 1.247-.02 2.06 0 .8-.007 1.627-.02 2.48l-.04 2.5c-.014.8-.027 1.48-.04 2.04a.928.928 0 0 1-.3.66.835.835 0 0 1-.58.24.955.955 0 0 1-.64-.24c-.187-.173-.267-.427-.24-.76 0-.36.006-.767.02-1.22l.04-1.34c.013-.827.02-1.707.02-2.64.013-.947.02-1.82.02-2.62V105c0-.4-.014-.833-.04-1.3 0-.107-.007-.287-.02-.54 0-.267-.007-.5-.02-.7zm-5.58 15.66c.36.013.687.02.98.02h1.98c.36 0 .727-.007 1.1-.02.386-.013.8-.033 1.24-.06.44-.013.933-.033 1.48-.06.293-.027.52.027.68.16.16.133.246.3.26.5.026.267-.04.48-.2.64a.891.891 0 0 1-.54.3c-.52.04-.987.067-1.4.08-.413.027-.8.04-1.16.04-.36.013-.707.02-1.04.02h-2.34c-.48 0-1.04.007-1.68.02-.56 0-.953-.093-1.18-.28-.213-.187-.32-.56-.32-1.12v-1.94c.013-.347.02-.68.02-1v-.88c0-.32.1-.533.3-.64.213-.12.46-.18.74-.18.173 0 .353.073.54.22.187.133.28.32.28.56 0 .413-.007.773-.02 1.08-.014.307-.02.573-.02.8v.6c.013.213.013.473 0 .78-.014.187 0 .293.04.32.053.027.14.04.26.04zm12.52-4.12c-.227-.067-.4-.16-.52-.28-.107-.133-.147-.333-.12-.6a.812.812 0 0 1 .28-.56c.173-.133.42-.187.74-.16.48.027 1 .04 1.56.04h1.6c1.08-.013 2.013-.02 2.8-.02.8-.013 1.346-.033 1.64-.06.333-.027.593-.02.78.02.2.027.347.08.44.16.106.08.173.187.2.32.027.12.04.26.04.42v2.14c0 .213-.007.38-.02.5v.28c-.014.16-.034.293-.06.4a.383.383 0 0 1-.16.22.985.985 0 0 1-.3.1c-.12.013-.28.027-.48.04-.067 0-.2.007-.4.02-.187 0-.42.007-.7.02h-.88c-.32.013-.64.02-.96.02h-2.26a53.53 53.53 0 0 0-1.84.06c-.013.227-.02.427-.02.6.013.187.02.38.02.58 0 .053.013.107.04.16.04.067.113.1.22.1.227 0 .453.007.68.02.24.013.493.02.76.02.573 0 1.18-.007 1.82-.02.64 0 1.293-.013 1.96-.04.333 0 .686-.013 1.06-.04.386-.013.773-.033 1.16-.06.32-.027.553.04.7.2.16.173.24.373.24.6 0 .16-.053.307-.16.44-.094.147-.254.253-.48.32-.093.027-.313.047-.66.06-.334.027-.674.047-1.02.06-.8.027-1.6.047-2.4.06-.787.027-1.52.04-2.2.04h-.74c-.254 0-.5-.007-.74-.02-.24 0-.46-.007-.66-.02-.2 0-.36-.007-.48-.02-.387-.04-.654-.147-.8-.32-.147-.16-.22-.433-.22-.82v-2.36c-.027-.453.046-.753.22-.9.173-.147.413-.22.72-.22h2.14c.48-.013.987-.02 1.52-.02.533-.013 1.033-.02 1.5-.02.48-.013.9-.02 1.26-.02h.8v-1.22c0-.107-.02-.173-.06-.2-.04-.027-.107-.04-.2-.04-.28 0-.647.007-1.1.02-.44.013-.913.027-1.42.04-.507 0-1.02.007-1.54.02-.52.013-.993.027-1.42.04-.387.013-.76.013-1.12 0-.36-.027-.613-.06-.76-.1zm4.1-12.4c.627-.013 1.233.027 1.82.12.587.08 1.106.247 1.56.5.466.253.84.6 1.12 1.04.293.427.44.98.44 1.66.013.747-.147 1.333-.48 1.76-.32.413-.727.733-1.22.96a5.254 5.254 0 0 1-1.62.4c-.587.053-1.127.08-1.62.08-.6 0-1.167-.053-1.7-.16a4.991 4.991 0 0 1-1.42-.54c-.4-.253-.72-.587-.96-1-.24-.413-.36-.92-.36-1.52s.133-1.107.4-1.52c.28-.413.633-.747 1.06-1 .426-.267.9-.46 1.42-.58a8.041 8.041 0 0 1 1.56-.2zm3.94 7.68h.8c.32-.013.633-.02.94-.02a19.3 19.3 0 0 1 .8-.02c.227-.013.353-.02.38-.02.587-.013.88.267.88.84 0 .293-.08.5-.24.62a.827.827 0 0 1-.5.16c-1.16.027-2.28.053-3.36.08-1.08.013-2.16.02-3.24.02H64.712c-.92 0-1.78-.033-2.58-.1a.778.778 0 0 1-.5-.24c-.107-.147-.147-.367-.12-.66.026-.253.12-.433.28-.54.173-.12.386-.173.64-.16a219.386 219.386 0 0 0 2.48.08c.386 0 .726.007 1.02.02.293 0 .573.007.84.02H69.572c.386-.013.76-.02 1.12-.02.36-.013.693-.027 1-.04.307-.013.567-.02.78-.02zm-3.84-6.18c-.347.027-.68.073-1 .14-.32.053-.6.147-.84.28-.24.133-.433.313-.58.54-.147.213-.227.493-.24.84-.013.347.06.633.22.86.16.213.367.38.62.5s.533.207.84.26c.306.04.6.06.88.06.347 0 .707-.013 1.08-.04a3.693 3.693 0 0 0 1-.2c.306-.107.56-.273.76-.5.2-.227.3-.533.3-.92.013-.413-.08-.74-.28-.98-.2-.253-.453-.44-.76-.56a2.876 2.876 0 0 0-.98-.24c-.36-.04-.7-.053-1.02-.04zm22.864 11.78c.12-.107.146-.167.08-.18a.393.393 0 0 0-.18-.04c-.774.013-1.614.027-2.52.04-.894.013-1.847.02-2.86.02-.254 0-.46-.067-.62-.2-.16-.133-.24-.327-.24-.58a.8.8 0 0 1 .2-.56c.146-.147.38-.22.7-.22H91.115l1.72-.04c.36 0 .646.02.86.06.226.027.433.12.62.28.16.147.226.347.2.6-.014.24-.134.473-.36.7a22.492 22.492 0 0 1-2.36 2.06c.626.387 1.226.74 1.8 1.06.586.333 1.086.607 1.5.82.24.12.406.273.5.46.093.2.066.42-.08.66-.08.12-.174.2-.28.24a.519.519 0 0 1-.32.06c-.107 0-.22-.02-.34-.06a3.014 3.014 0 0 1-.32-.1 14.68 14.68 0 0 1-1.98-.92 56.914 56.914 0 0 1-2.06-1.16c-.707.44-1.447.847-2.22 1.22-.76.373-1.54.687-2.34.94-.24.08-.447.08-.62 0a.683.683 0 0 1-.34-.38c-.067-.2-.06-.4.02-.6.093-.187.273-.333.54-.44a15.388 15.388 0 0 0 1.74-.82c.613-.32 1.206-.653 1.78-1 .586-.36 1.12-.707 1.6-1.04.48-.347.853-.64 1.12-.88zm-3.78-9.3c.066-.107.04-.16-.08-.16-.294 0-.634.007-1.02.02h-2.96c-.374-.013-.614-.093-.72-.24a1.004 1.004 0 0 1-.16-.46.711.711 0 0 1 .18-.52c.133-.173.373-.273.72-.3.213-.013.486-.02.82-.02.333 0 .693-.007 1.08-.02h.86c.293-.013.58-.02.86-.02h.78a17.3 17.3 0 0 0 .58-.04c.146-.013.3 0 .46.04.16.027.306.08.44.16.133.067.24.16.32.28.093.12.14.267.14.44 0 .093-.014.2-.04.32a2.299 2.299 0 0 1-.14.38 9.606 9.606 0 0 1-1.5 2.28c.386.4.773.793 1.16 1.18.386.373.793.76 1.22 1.16a.94.94 0 0 1 .26.58c.04.24-.007.42-.14.54-.187.173-.387.253-.6.24-.214-.027-.434-.133-.66-.32-.267-.213-.62-.507-1.06-.88-.44-.387-.894-.8-1.36-1.24-.6.587-1.2 1.093-1.8 1.52-.587.427-1.087.753-1.5.98-.667.373-1.107.367-1.32-.02a.742.742 0 0 1-.08-.58c.066-.213.206-.393.42-.54.253-.173.586-.427 1-.76a22.594 22.594 0 0 0 2.7-2.5 9.466 9.466 0 0 0 1.14-1.5zm5.06-3.22c0-.253.093-.447.28-.58.2-.133.433-.187.7-.16.2.013.386.08.56.2.173.107.26.28.26.52v3.1c.013.147.02.313.02.5h1.6c.213-.013.44-.02.68-.02.306 0 .533.087.68.26.16.16.24.347.24.56 0 .2-.074.387-.22.56-.134.173-.334.267-.6.28-.294.013-.627.02-1 .02h-1.38c-.014.56-.02 1.187-.02 1.88v1.86c0 .293-.094.507-.28.64a.93.93 0 0 1-.58.2c-.267 0-.487-.067-.66-.2-.16-.147-.24-.367-.24-.66v-3.18c0-.76-.007-1.573-.02-2.44 0-.28-.007-.58-.02-.9v-2.44zm-8.08.32a1.787 1.787 0 0 1-.66-.3c-.174-.147-.227-.373-.16-.68a.658.658 0 0 1 .4-.46c.213-.093.433-.12.66-.08l.76.16c.186.04.366.073.54.1.186.013.4.027.64.04h.98c.373 0 .633.06.78.18.146.12.22.3.22.54 0 .293-.1.493-.3.6-.187.107-.374.16-.56.16h-.68c-.467 0-.907-.013-1.32-.04-.4-.04-.834-.113-1.3-.22zm15.776 12.1a1.505 1.505 0 0 1-.26.2 1.085 1.085 0 0 1-.7.16.593.593 0 0 1-.32-.2.644.644 0 0 1-.18-.58c.04-.213.12-.393.24-.54 1.253-1.547 2.28-3.127 3.08-4.74.813-1.613 1.38-3.187 1.7-4.72a.641.641 0 0 0-.02-.1c0-.053-.054-.073-.16-.06l-1.3.08c-.44.013-.927.02-1.46.02-.2 0-.387.007-.56.02-.174 0-.327-.007-.46-.02a1.952 1.952 0 0 1-.68-.16c-.214-.107-.32-.313-.32-.62 0-.267.1-.46.3-.58.2-.133.406-.2.62-.2H101.332c.333-.013.653-.02.96-.02.32-.013.613-.027.88-.04.266-.013.5-.027.7-.04.133-.013.32-.02.56-.02.24-.013.413-.02.52-.02.426 0 .706.087.84.26.133.16.2.373.2.64 0 .12-.007.24-.02.36a2.998 2.998 0 0 1-.06.32c-.254 1.4-.72 2.853-1.4 4.36.373.853.74 1.607 1.1 2.26.373.653.753 1.3 1.14 1.94.106.16.2.313.28.46.08.147.166.3.26.46.146.24.2.487.16.74-.04.24-.127.393-.26.46a.826.826 0 0 1-.62.08c-.214-.067-.414-.213-.6-.44a6.404 6.404 0 0 1-.46-.6c-.174-.28-.374-.593-.6-.94l-.7-1.14c-.24-.427-.474-.86-.7-1.3-.427.76-.894 1.5-1.4 2.22a23.955 23.955 0 0 1-1.64 2.04zm8.84 4.12v-1.88c.013-.573.02-1.113.02-1.62.013-.52.02-1.007.02-1.46.013-.467.02-.933.02-1.4v-1.34c0-.533-.007-1.08-.02-1.64V106.74c0-.947-.007-1.787-.02-2.52a46.314 46.314 0 0 0-.06-1.76c0-.307.08-.54.24-.7a.956.956 0 0 1 .58-.28c.226-.027.446.047.66.22.226.16.34.373.34.64v3.02c0 .6-.007 1.233-.02 1.9v2.06c-.014.68-.02 1.367-.02 2.06.013.68.02 1.38.02 2.1 0 .453-.007.933-.02 1.44v2.86c.013.44.026.82.04 1.14.013.24-.06.44-.22.6-.147.16-.36.24-.64.24-.254 0-.474-.073-.66-.22-.174-.133-.26-.347-.26-.64zm21.433-11.52c-.027.267-.114.46-.26.58a.849.849 0 0 1-.48.2l-1.8.1c-.48.013-.927.02-1.34.02v2.06h2.16c.72 0 1.48-.007 2.28-.02h.34a3 3 0 0 0 .36-.02c.133 0 .26-.007.38-.02.253 0 .453.073.6.22.16.133.24.333.24.6 0 .28-.067.473-.2.58a1.12 1.12 0 0 1-.44.2c-.147.04-.327.06-.54.06H126.745c-1.08 0-2.154.007-3.22.02-1.067 0-2.127-.007-3.18-.02a2.8 2.8 0 0 0-.28.02h-.9a.98.98 0 0 1-.56-.24c-.147-.147-.22-.353-.22-.62 0-.227.086-.4.26-.52.173-.12.366-.193.58-.22l5.88-.04v-2.04h-1c-.36 0-.78.007-1.26.02-.614 0-1.027-.093-1.24-.28-.214-.2-.32-.573-.32-1.12v-1.06c.013-.373.02-.747.02-1.12v-1.92c0-.333.106-.547.32-.64.226-.107.473-.16.74-.16h.1a.19.19 0 0 1 .12 0h1.12c.36 0 .753.007 1.18.02H128.165c.306-.013.573-.02.8-.02.24-.013.426-.033.56-.06.346-.053.633.02.86.22.226.2.353.46.38.78v.96c0 .4-.007.813-.02 1.24V107.38zm-9 12.62c-.214.093-.42.127-.62.1-.2-.013-.374-.133-.52-.36-.147-.24-.16-.46-.04-.66.133-.2.293-.353.48-.46.373-.2.746-.427 1.12-.68.373-.253.72-.533 1.04-.84.333-.293.633-.607.9-.94.28-.347.513-.7.7-1.06.106-.187.186-.373.24-.56.053-.2.093-.42.12-.66.026-.36.133-.587.32-.68.2-.093.4-.14.6-.14.24 0 .46.06.66.18.2.107.293.353.28.74-.014.187-.04.38-.08.58-.027.2-.074.407-.14.62.8.84 1.566 1.54 2.3 2.1.733.56 1.353 1 1.86 1.32.186.107.326.28.42.52.093.253.053.493-.12.72a.586.586 0 0 1-.56.24 2.274 2.274 0 0 1-.74-.2c-.12-.053-.334-.187-.64-.4-.307-.2-.654-.453-1.04-.76a43.812 43.812 0 0 1-1.22-.96c-.427-.347-.82-.687-1.18-1.02-.307.4-.64.767-1 1.1-.36.347-.727.653-1.1.92-.374.28-.734.52-1.08.72a8.882 8.882 0 0 1-.96.52zm1.5-13.28c.44.013.84.027 1.2.04h1.78c.24 0 .493-.007.76-.02.266-.013.56-.027.88-.04.32-.013.693-.033 1.12-.06v-2.86c0-.04-.007-.08-.02-.12 0-.04-.047-.06-.14-.06-.227 0-.5.007-.82.02h-.94l-2.16.04c-.694 0-1.294.007-1.8.02-.014.467-.02.92-.02 1.36v1.48a.5.5 0 0 0 .02.16c.013.027.06.04.14.04zm19.83-4c-.013-.28.067-.487.24-.62a.978.978 0 0 1 .62-.22.93.93 0 0 1 .58.2c.173.12.273.293.3.52.013.12.013.24 0 .36v3.6h1.46a105.687 105.687 0 0 0-.08-4.1c-.013-.267.067-.467.24-.6.187-.133.393-.2.62-.2.2 0 .38.06.54.18.173.12.273.293.3.52.013.08.013.193 0 .34V103.54c.013.093.02.22.02.38v.66c.013.267.02.653.02 1.16 0 .453-.007.94-.02 1.46v1.58c0 .533-.007 1.06-.02 1.58v1.42c0 .267-.093.473-.28.62a.821.821 0 0 1-.6.2.982.982 0 0 1-.56-.24c-.147-.147-.22-.347-.22-.6v-1.78l.04-1.86h-1.46v2.66c.013.267.013.553 0 .86a.99.99 0 0 1-.24.6.794.794 0 0 1-.54.28.776.776 0 0 1-.66-.22c-.173-.173-.26-.407-.26-.7v-5.44c0-1.16-.013-2.307-.04-3.44zm-5.12 17.08a.987.987 0 0 1-.64.26.752.752 0 0 1-.6-.22c-.107-.107-.16-.267-.16-.48 0-.213.08-.413.24-.6.28-.307.553-.647.82-1.02.28-.373.527-.767.74-1.18.227-.413.413-.84.56-1.28.147-.44.233-.88.26-1.32.027-.32.113-.553.26-.7a.802.802 0 0 1 .56-.22c.267 0 .487.047.66.14.187.093.293.32.32.68.027.267.013.547-.04.84-.04.293-.113.593-.22.9.187.253.387.52.6.8.227.28.44.54.64.78.08.107.167.22.26.34.093.133.193.267.3.4.44-.573.82-1.2 1.14-1.88.333-.693.513-1.38.54-2.06.027-.333.113-.573.26-.72a.826.826 0 0 1 .58-.22c.253 0 .467.047.64.14.187.093.293.32.32.68.013.507-.073 1.067-.26 1.68a21.472 21.472 0 0 0 1.38 1.62 17.869 17.869 0 0 0 1.22 1.24c.16.147.267.34.32.58a.636.636 0 0 1-.16.64c-.2.213-.413.287-.64.22-.213-.053-.44-.18-.68-.38a22.17 22.17 0 0 1-2.24-2.18c-.267.427-.567.853-.9 1.28-.32.427-.673.84-1.06 1.24a.91.91 0 0 1-.62.26.75.75 0 0 1-.62-.2c-.16-.16-.22-.373-.18-.64a.815.815 0 0 0-.1-.12l-.08-.08a32.537 32.537 0 0 0-.74-.84 19.37 19.37 0 0 1-.74-.82c-.253.427-.547.84-.88 1.24-.32.413-.673.813-1.06 1.2zm.42-13.88c.56-.013 1.047.06 1.46.22.427.16.773.387 1.04.68.28.28.487.62.62 1.02s.2.84.2 1.32c0 .56-.087 1.04-.26 1.44-.173.4-.407.733-.7 1s-.64.467-1.04.6c-.387.12-.8.18-1.24.18-1.04 0-1.847-.293-2.42-.88-.56-.6-.84-1.387-.84-2.36 0-.48.08-.913.24-1.3.16-.4.38-.74.66-1.02.293-.28.633-.493 1.02-.64.387-.16.807-.247 1.26-.26zm-3.2-.62c-.56 0-.84-.273-.84-.82 0-.213.073-.387.22-.52.16-.133.427-.2.8-.2h2.56c.333 0 .647.007.94.02.307 0 .607.007.9.02.293 0 .587.007.88.02.307.013.64.02 1 .02.507 0 .767.227.78.68.013.253-.06.447-.22.58a.833.833 0 0 1-.6.18c-.747-.04-1.5-.053-2.26-.04h-2.16c-.36 0-.7.007-1.02.02-.307.013-.633.027-.98.04zm3.22 2.1c-.52.04-.907.227-1.16.56-.24.32-.36.713-.36 1.18 0 .6.147 1.047.44 1.34.293.28.673.42 1.14.42.56 0 .96-.167 1.2-.5.253-.333.38-.747.38-1.24 0-.24-.033-.467-.1-.68a1.384 1.384 0 0 0-.28-.58 1.153 1.153 0 0 0-.52-.38c-.2-.093-.447-.133-.74-.12zm-1.58-4.62c-.253-.053-.44-.153-.56-.3a.718.718 0 0 1-.12-.58c.053-.253.173-.427.36-.52.187-.093.4-.12.64-.08.32.067.587.12.8.16.213.027.407.053.58.08.187.013.367.02.54.02h.62c.227 0 .453.047.68.14.24.08.36.253.36.52 0 .347-.087.567-.26.66-.173.08-.367.127-.58.14-.173.013-.313.02-.42.02h-.38c-.213 0-.407-.007-.58-.02l-.52-.04c-.16-.027-.333-.053-.52-.08a8.917 8.917 0 0 1-.64-.12zm17.596.58c.84-.04 1.514.1 2.02.42.52.32.927.747 1.22 1.28.294.52.487 1.107.58 1.76.107.653.16 1.287.16 1.9 0 .72-.046 1.427-.14 2.12a5.702 5.702 0 0 1-.56 1.84 3.41 3.41 0 0 1-1.18 1.32c-.506.333-1.173.5-2 .5-.853 0-1.533-.187-2.04-.56a3.76 3.76 0 0 1-1.14-1.4 6.513 6.513 0 0 1-.5-1.88c-.066-.68-.1-1.327-.1-1.94s.047-1.233.14-1.86a5.44 5.44 0 0 1 .56-1.68c.28-.507.654-.927 1.12-1.26.48-.333 1.1-.52 1.86-.56zm5.18 4.74c.28 0 .554.007.82.02.267 0 .607-.013 1.02-.04.014-.827.007-1.727-.02-2.7-.026-.973-.04-1.92-.04-2.84 0-.28.08-.493.24-.64a.987.987 0 0 1 .66-.22c.28 0 .487.087.62.26.134.173.2.393.2.66v4.3c.014.44.02.887.02 1.34v8.6c0 .787-.006 1.46-.02 2.02-.013.267-.106.467-.28.6a.826.826 0 0 1-.54.22c-.266 0-.48-.087-.64-.26a.854.854 0 0 1-.22-.56c.014-.467.02-1 .02-1.6v-4.62c.014-.96.014-1.927 0-2.9a3.584 3.584 0 0 0-.42-.02h-1.08c-.173 0-.326-.007-.46-.02-.506-.04-.76-.327-.76-.86 0-.267.08-.453.24-.56a1.1 1.1 0 0 1 .64-.18zm-5.12-3.2c-.44.04-.793.193-1.06.46a2.705 2.705 0 0 0-.58.96c-.133.373-.22.773-.26 1.2-.026.427-.04.827-.04 1.2 0 .44.014.907.04 1.4.027.493.1.953.22 1.38.134.413.334.76.6 1.04.28.28.667.42 1.16.42.507 0 .9-.153 1.18-.46.28-.32.48-.7.6-1.14.134-.453.207-.92.22-1.4.027-.48.04-.893.04-1.24 0-.56-.033-1.08-.1-1.56a4.388 4.388 0 0 0-.34-1.24c-.16-.36-.38-.627-.66-.8-.266-.187-.606-.26-1.02-.22zm-95.387 33.98c0 .12.007.207.02.26.027.053.114.087.26.1.174.013.354.02.54.02h.5c.68 0 1.38-.02 2.1-.06a15.799 15.799 0 0 0 2.14-.3c.267-.053.494-.047.68.02.2.067.334.187.4.36.08.227.06.447-.06.66a.872.872 0 0 1-.5.42c-.28.107-.666.193-1.16.26-.493.053-1 .1-1.52.14a63.195 63.195 0 0 1-2.38.08h-.76l-.72-.04a2.08 2.08 0 0 1-.72-.14 1.052 1.052 0 0 1-.4-.3 1.314 1.314 0 0 1-.2-.44 3.161 3.161 0 0 1-.04-.52v-5.26l.04-4.3c.014-.267.1-.5.26-.7.174-.213.414-.32.72-.32.374.013.814.027 1.32.04h2.82c.454-.013.854-.027 1.2-.04.294-.013.527.047.7.18.174.133.26.34.26.62 0 .16-.053.313-.16.46-.093.147-.24.233-.44.26-.426.053-.866.087-1.32.1-.44.013-.926.02-1.46.02-.346 0-.666.007-.96.02-.293 0-.666-.013-1.12-.04v2.2c0 .72-.006 1.427-.02 2.12v.94c0 .373-.006.76-.02 1.16v2.02zm7.76 5.88v-3.44c0-1.2-.006-2.373-.02-3.52v-3.28c0-1.053-.006-1.993-.02-2.82 0-.84-.006-1.533-.02-2.08 0-.547-.006-.9-.02-1.06-.013-.28.06-.493.22-.64.174-.16.374-.253.6-.28.347-.027.6.04.76.2.16.16.24.36.24.6v.9c.014.187.02.353.02.5v4.34H70.344c.24 0 .487-.007.74-.02.294-.013.514.06.66.22.16.147.247.32.26.52a.78.78 0 0 1-.2.62c-.146.187-.386.273-.72.26-.373.013-.76.02-1.16.02h-1.3v4c0 1.387.007 2.707.02 3.96V144.56c0 .227-.013.407-.04.54-.066.267-.173.433-.32.5-.133.067-.306.1-.52.1-.186 0-.34-.027-.46-.08a.667.667 0 0 1-.28-.22.864.864 0 0 1-.14-.32 1.313 1.313 0 0 1-.04-.32zm9.817-15.1c0-.36.06-.647.18-.86.133-.227.386-.34.76-.34.306 0 .526.107.66.32.146.2.213.487.2.86-.014.227-.02.487-.02.78 0 .293-.014.533-.04.72-.027.307-.06.607-.1.9a7.948 7.948 0 0 1-.12.84c.266.747.526 1.427.78 2.04.266.613.533 1.193.8 1.74.266.547.546 1.073.84 1.58.293.507.6 1.027.92 1.56.146.24.2.473.16.7-.027.227-.107.38-.24.46-.414.227-.814.127-1.2-.3a6.247 6.247 0 0 1-.56-.76 48.27 48.27 0 0 1-.7-1.18c-.254-.453-.52-.94-.8-1.46-.267-.533-.52-1.06-.76-1.58-.36.973-.787 1.867-1.28 2.68-.48.813-1 1.6-1.56 2.36-.08.093-.174.187-.28.28-.107.093-.22.167-.34.22-.12.04-.247.053-.38.04a.666.666 0 0 1-.38-.18.593.593 0 0 1-.2-.32c-.014-.12-.007-.24.02-.36a1.44 1.44 0 0 1 .12-.36c.066-.12.133-.22.2-.3a21.942 21.942 0 0 0 2.26-4.22c.586-1.453.933-3.027 1.04-4.72.013-.16.02-.347.02-.56v-.58zm6.86 15.24c.013-2.693.013-5.4 0-8.12 0-2.733-.007-5.447-.02-8.14 0-.28.086-.493.26-.64a.982.982 0 0 1 .66-.24c.186 0 .373.067.56.2.2.133.3.333.3.6 0 .253-.007.607-.02 1.06v3.08c0 .613.006 1.26.02 1.94.013 1.08.02 2.193.02 3.34.013 1.133.02 2.22.02 3.26 0 .68-.007 1.34-.02 1.98 0 .653-.007 1.213-.02 1.68-.014.267-.12.467-.32.6-.187.133-.367.2-.54.2a.871.871 0 0 1-.64-.26c-.174-.16-.26-.34-.26-.54zm14.853-14.8c-.254 0-.46-.053-.62-.16-.147-.12-.234-.293-.26-.52a.697.697 0 0 1 .18-.56c.146-.187.38-.28.7-.28H99.714c.213 0 .466-.013.76-.04.293-.027.546.033.76.18.213.147.32.393.32.74 0 .187-.034.413-.1.68-.107.373-.214.753-.32 1.14a15.24 15.24 0 0 1-.36 1.2c.24.653.493 1.32.76 2 .266.68.513 1.273.74 1.78.093.187.126.4.1.64-.027.24-.134.413-.32.52-.2.107-.4.127-.6.06-.2-.067-.387-.24-.56-.52a9.818 9.818 0 0 1-.5-.96c-.174-.4-.354-.82-.54-1.26-.187.387-.394.78-.62 1.18-.227.4-.48.82-.76 1.26-.214.36-.487.527-.82.5a.796.796 0 0 1-.4-.18 1.448 1.448 0 0 1-.26-.38c-.147-.28-.347-.667-.6-1.16a54.55 54.55 0 0 1-.7-1.54c-.2.453-.427.92-.68 1.4-.254.467-.547.953-.88 1.46-.187.28-.4.44-.64.48a.783.783 0 0 1-.64-.16.547.547 0 0 1-.22-.56c.053-.227.133-.433.24-.62a17.38 17.38 0 0 0 1.42-2.92c.386-1.027.713-2.08.98-3.16.026-.12.02-.187-.02-.2-.027-.027-.08-.04-.16-.04h-1.36c-.507 0-.78-.227-.82-.68a.731.731 0 0 1 .16-.56c.133-.187.366-.28.7-.28h1.58c.173-.013.4-.027.68-.04.293-.013.546.047.76.18.226.133.34.373.34.72 0 .08-.007.18-.02.3 0 .107-.02.24-.06.4-.067.307-.14.613-.22.92a9.04 9.04 0 0 1-.26.94c.053.147.106.287.16.42.053.133.093.247.12.34l.44 1.24c.16.413.333.827.52 1.24.386-.76.733-1.54 1.04-2.34.32-.8.6-1.647.84-2.54l.04-.16c.026-.067-.034-.1-.18-.1h-1.18zm-1.5 10.94c-.347.027-.587-.047-.72-.22a.994.994 0 0 1-.22-.54c-.027-.533.253-.813.84-.84.333-.013.786-.02 1.36-.02.573-.013 1.186-.02 1.84-.02.653-.013 1.306-.02 1.96-.02h2.74c.106 0 .226.013.36.04.133.027.26.08.38.16s.22.2.3.36c.08.147.113.347.1.6-.027.813-.04 1.613-.04 2.4.013.773.006 1.5-.02 2.18-.014.28-.094.507-.24.68-.147.173-.374.273-.68.3a.782.782 0 0 1-.62-.24c-.16-.16-.24-.407-.24-.74v-3a8.164 8.164 0 0 0 0-.8.602.602 0 0 0-.04-.22c-.027-.067-.12-.1-.28-.1h-.76c-.294-.013-.6-.02-.92-.02h-2.74c-.28 0-.547.007-.8.02-.254 0-.507.007-.76.02-.24 0-.507.007-.8.02zm7.22-12.54c0-.267.093-.473.28-.62.2-.147.413-.22.64-.22.226 0 .42.06.58.18.173.12.28.293.32.52v1.68c.013.093.02.267.02.52v1.16c0 .96.006 1.973.02 3.04a71.955 71.955 0 0 1-.02 2.94.897.897 0 0 1-.28.64.909.909 0 0 1-.58.24.838.838 0 0 1-.64-.2c-.187-.16-.28-.393-.28-.7-.014-.72-.02-1.467-.02-2.24a133.493 133.493 0 0 0 0-4.56c-.014-.773-.027-1.567-.04-2.38zm8.14.86c.84-.04 1.513.1 2.02.42.52.32.926.747 1.22 1.28.293.52.486 1.107.58 1.76.106.653.16 1.287.16 1.9 0 .72-.047 1.427-.14 2.12a5.727 5.727 0 0 1-.56 1.84c-.28.547-.674.987-1.18 1.32-.507.333-1.174.5-2 .5-.854 0-1.534-.187-2.04-.56a3.74 3.74 0 0 1-1.14-1.4 6.48 6.48 0 0 1-.5-1.88c-.067-.68-.1-1.327-.1-1.94s.046-1.233.14-1.86a5.389 5.389 0 0 1 .56-1.68c.28-.507.653-.927 1.12-1.26.48-.333 1.1-.52 1.86-.56zm5.18 4.74c.28 0 .553.007.82.02.266 0 .606-.013 1.02-.04.013-.827.006-1.727-.02-2.7-.027-.973-.04-1.92-.04-2.84 0-.28.08-.493.24-.64.173-.147.393-.22.66-.22.28 0 .486.087.62.26.133.173.2.393.2.66v4.3c.013.44.02.887.02 1.34v8.6c0 .787-.007 1.46-.02 2.02-.014.267-.107.467-.28.6-.174.147-.354.22-.54.22-.267 0-.48-.087-.64-.26a.85.85 0 0 1-.22-.56c.013-.467.02-1 .02-1.6v-4.62c.013-.96.013-1.927 0-2.9a3.608 3.608 0 0 0-.42-.02h-1.08c-.174 0-.327-.007-.46-.02-.507-.04-.76-.327-.76-.86 0-.267.08-.453.24-.56.173-.12.386-.18.64-.18zm-5.12-3.2c-.44.04-.794.193-1.06.46a2.676 2.676 0 0 0-.58.96c-.134.373-.22.773-.26 1.2-.027.427-.04.827-.04 1.2 0 .44.013.907.04 1.4.026.493.1.953.22 1.38.133.413.333.76.6 1.04.28.28.666.42 1.16.42.506 0 .9-.153 1.18-.46.28-.32.48-.7.6-1.14.133-.453.206-.92.22-1.4.026-.48.04-.893.04-1.24 0-.56-.034-1.08-.1-1.56a4.42 4.42 0 0 0-.34-1.24c-.16-.36-.38-.627-.66-.8-.267-.187-.607-.26-1.02-.22zm21.86 11.1h-2.1c-.227 0-.407-.007-.54-.02-.574-.04-.86-.307-.86-.8 0-.267.093-.467.28-.6a.812.812 0 0 1 .62-.18c.173.013.426.027.76.04h1.84v-5.04c0-.733-.007-1.447-.02-2.14l-.04-1.94c0-.6-.007-1.14-.02-1.62-.014-.493-.02-.9-.02-1.22 0-.253.08-.453.24-.6a.99.99 0 0 1 .56-.26c.253-.027.48.04.68.2.2.16.3.353.3.58 0 .293-.007.54-.02.74 0 .2.006.387.02.56.013.507.02 1.067.02 1.68v5.1c0 .467-.007.9-.02 1.3V141.6c0 .8.013 1.667.04 2.6 0 .147.006.307.02.48.013.187 0 .333-.04.44-.067.227-.18.38-.34.46a.917.917 0 0 1-.5.14.958.958 0 0 1-.6-.2c-.16-.12-.24-.293-.24-.52l-.02-3zm-9.04-11.92c-.24 0-.447-.047-.62-.14-.16-.107-.247-.287-.26-.54a.873.873 0 0 1 .18-.58c.133-.187.373-.293.72-.32.2-.013.526-.02.98-.02h2.96c.506-.013.893-.02 1.16-.02.426 0 .726.087.9.26.173.173.26.433.26.78 0 .107-.02.22-.06.34-.027.12-.087.253-.18.4a8.95 8.95 0 0 1-.68.88c-.254.307-.534.613-.84.92.493.467.98.907 1.46 1.32.48.413.846.733 1.1.96.16.147.26.34.3.58.053.227.013.413-.12.56-.16.187-.347.267-.56.24-.2-.027-.42-.113-.66-.26-.134-.08-.307-.2-.52-.36l-.68-.54c-.254-.2-.52-.413-.8-.64a38.797 38.797 0 0 1-.78-.68c-.547.467-1.1.9-1.66 1.3-.547.4-1.054.733-1.52 1-.614.373-1.047.34-1.3-.1a.682.682 0 0 1-.06-.58c.08-.2.213-.367.4-.5.866-.6 1.693-1.22 2.48-1.86.8-.64 1.54-1.38 2.22-2.22.026-.027.04-.067.04-.12.013-.053-.034-.08-.14-.08h-.82c-.347 0-.707.007-1.08.02h-1.82zm3.06 7.16a24.86 24.86 0 0 0 1.2-.06c.346-.027.666-.053.96-.08l.92-.12c.32-.053.68-.107 1.08-.16.213-.027.42 0 .62.08.213.067.333.253.36.56.026.28-.027.48-.16.6a1.14 1.14 0 0 1-.48.22c-.72.147-1.374.26-1.96.34-.587.08-1.2.133-1.84.16v3.96c0 .307-.007.587-.02.84v.5c0 .173-.02.347-.06.52a.815.815 0 0 1-.38.48.74.74 0 0 1-.54.14 1.01 1.01 0 0 1-.58-.26c-.16-.133-.24-.32-.24-.56v-.46c.013-.147.02-.233.02-.26v-1.06c.013-.413.02-.84.02-1.28v-2.52h-2.1c-.427 0-.78-.007-1.06-.02-.2 0-.394-.053-.58-.16-.174-.107-.26-.313-.26-.62 0-.253.08-.44.24-.56.16-.133.34-.2.54-.2h3.24c.386 0 .74-.007 1.06-.02zm13.56-8.5c-.027.427-.054.86-.08 1.3-.014.427-.027.893-.04 1.4-.014.493-.027 1.04-.04 1.64v3.1c0 .36-.007.72-.02 1.08 0 .347-.007.673-.02.98v.78c0 .067-.007.207-.02.42v.7c0 .28-.08.487-.24.62a.734.734 0 0 1-.58.16.907.907 0 0 1-.6-.2c-.147-.133-.22-.333-.22-.6a35.9 35.9 0 0 0 .04-1.62c.013-.507.02-1.013.02-1.52 0-.307-.007-.6-.02-.88v-.88c0-.36-.007-.72-.02-1.08v-1.1c0-.68.006-1.407.02-2.18.013-.773.046-1.547.1-2.32.026-.267.126-.46.3-.58a.858.858 0 0 1 .62-.16c.56.08.826.393.8.94zm-1.12 15.98c-.467 0-.82-.153-1.06-.46a1.181 1.181 0 0 1-.26-1c.133-.64.533-1 1.2-1.08.386-.04.72.073 1 .34.28.253.42.573.42.96 0 .32-.114.607-.34.86-.214.253-.534.38-.96.38z" fill="#1B1B1B"/>
</svg>
