<svg xmlns="http://www.w3.org/2000/svg" width="42" height="42" fill="none" viewBox="0 0 42 42">
    <g filter="url(#filter0_d)">
        <path stroke="#fff" stroke-linecap="round" stroke-linejoin="round" stroke-opacity=".9" stroke-width="3" d="M29.333 36H12.667c-1.768 0-3.464-.73-4.714-2.029C6.703 32.671 6 30.91 6 29.072V18.175c0-1.19.296-2.362.858-3.4.563-1.038 1.373-1.907 2.354-2.524l8.333-5.248C18.587 6.347 19.782 6 21 6s2.413.347 3.455 1.003l8.333 5.248c.98.617 1.79 1.486 2.354 2.524.562 1.037.858 2.208.858 3.399v10.898c0 1.838-.702 3.6-1.953 4.899-1.25 1.3-2.946 2.029-4.714 2.029zM16 29.072h10"/>
    </g>
    <defs>
        <filter id="filter0_d" width="41" height="41" x=".5" y=".5" color-interpolation-filters="sRGB" filterUnits="userSpaceOnUse">
            <feFlood flood-opacity="0" result="BackgroundImageFix"/>
            <feColorMatrix in="SourceAlpha" result="hardAlpha" values="0 0 0 0 0 0 0 0 0 0 0 0 0 0 0 0 0 0 127 0"/>
            <feOffset/>
            <feGaussianBlur stdDeviation="2"/>
            <feColorMatrix values="0 0 0 0 0 0 0 0 0 0 0 0 0 0 0 0 0 0 0.2 0"/>
            <feBlend in2="BackgroundImageFix" result="effect1_dropShadow"/>
            <feBlend in="SourceGraphic" in2="effect1_dropShadow" result="shape"/>
        </filter>
    </defs>
</svg>
