<svg id="Capa_1" enable-background="new 0 0 512 512" height="512" viewBox="0 0 512 512" width="512" xmlns="http://www.w3.org/2000/svg"><g><g><path d="m268.422 484.297h-24.845c-7.28 0-13.37-5.526-14.076-12.771l-13.908-142.794h80.813l-13.908 142.794c-.706 7.245-6.796 12.771-14.076 12.771z" fill="#0573ce"/></g><g><path d="m270.142 328.732-13.908 142.794c-.683 7.007-6.406 12.391-13.366 12.738.237.012.47.034.71.034h24.845c7.28 0 13.37-5.526 14.076-12.771l13.908-142.794h-26.265z" fill="#0067c5"/></g><g><path d="m273.343 304.629c-10.667 6.457-24.019 6.457-34.686 0-46.16-27.944-168.527-110.403-168.527-199.303 0-54.028 43.798-97.826 97.826-97.826 38.724 0 72.392 22.5 88.044 54.783 15.652-32.283 49.32-54.783 88.044-54.783 54.028 0 97.826 43.798 97.826 97.826 0 88.9-122.367 171.359-168.527 199.303z" fill="#fe76a8"/></g><g><path d="m363.631 9.463c18.659 17.814 30.284 42.932 30.284 70.767 0 37.304-21.549 73.469-49.97 104.952-7.185 7.959-19.472 8.773-27.548 1.721-16.166-14.117-37.299-22.681-60.397-22.681-49.297 0-89.652 38.999-91.844 87.765 28.573 23.63 57.009 42.053 74.501 52.642 10.666 6.457 24.019 6.457 34.686 0 46.16-27.944 168.527-110.403 168.527-199.303 0-47.319-33.598-86.79-78.239-95.863z" fill="#fe5694"/></g><g><circle cx="256" cy="247.919" fill="#8c818f" r="60.61"/></g><g><path d="m285.954 195.236c5.036 8.837 7.927 19.055 7.927 29.954 0 33.474-27.136 60.61-60.61 60.61-10.899 0-21.117-2.891-29.954-7.927 10.43 18.304 30.108 30.656 52.683 30.656 33.474 0 60.61-27.136 60.61-60.61 0-22.575-12.351-42.253-30.656-52.683z" fill="#766d78"/></g><g><g><path d="m308.528 328.732h-105.056c-4.463 0-8.081-3.618-8.081-8.081v-16.163c0-4.463 3.618-8.081 8.081-8.081h105.057c4.463 0 8.081 3.618 8.081 8.081v16.163c0 4.463-3.618 8.081-8.082 8.081z" fill="#00f2a6"/></g><g><path d="m308.528 296.406h-26.264c4.463 0 8.081 3.618 8.081 8.081v16.163c0 4.463-3.618 8.081-8.081 8.081h26.264c4.463 0 8.081-3.618 8.081-8.081v-16.163c.001-4.462-3.617-8.081-8.081-8.081z" fill="#05e39c"/></g></g><g><path d="m424.919 209.403 14.64-6.935c3.081-1.46 3.081-5.844 0-7.303l-14.64-6.935c-1.423-.674-2.528-1.875-3.08-3.349l-9.174-24.463c-1.311-3.496-6.256-3.496-7.567 0l-9.174 24.463c-.553 1.474-1.658 2.675-3.08 3.349l-14.64 6.935c-3.081 1.46-3.081 5.844 0 7.303l14.64 6.935c1.423.674 2.528 1.875 3.08 3.349l9.174 24.463c1.311 3.496 6.256 3.496 7.567 0l9.174-24.463c.553-1.474 1.658-2.675 3.08-3.349z" fill="#ffe177"/></g><g><path d="m119.156 302.556 14.64-6.935c3.081-1.46 3.081-5.844 0-7.303l-14.64-6.935c-1.423-.674-2.528-1.875-3.08-3.349l-9.174-24.463c-1.311-3.496-6.256-3.496-7.567 0l-9.174 24.463c-.553 1.474-1.658 2.675-3.08 3.349l-14.64 6.935c-3.081 1.46-3.081 5.844 0 7.303l14.64 6.935c1.423.674 2.528 1.875 3.08 3.349l9.174 24.463c1.311 3.496 6.256 3.496 7.567 0l9.174-24.463c.552-1.474 1.657-2.675 3.08-3.349z" fill="#ffe177"/></g><g><path d="m388.869 411.435 14.64-6.935c3.081-1.46 3.081-5.844 0-7.303l-14.64-6.935c-1.423-.674-2.528-1.875-3.08-3.349l-9.174-24.463c-1.311-3.496-6.256-3.496-7.567 0l-9.174 24.463c-.553 1.474-1.658 2.675-3.08 3.349l-14.64 6.935c-3.081 1.46-3.081 5.844 0 7.303l14.64 6.935c1.423.674 2.528 1.875 3.08 3.349l9.174 24.463c1.311 3.496 6.256 3.496 7.567 0l9.174-24.463c.552-1.473 1.657-2.675 3.08-3.349z" fill="#ffe177"/></g><g><path d="m276.203 221.655c0-2.79-2.261-5.051-5.051-5.051s-5.051 2.261-5.051 5.051c0 2.789 2.261 5.051 5.051 5.051s5.051-2.262 5.051-5.051z"/><circle cx="287.315" cy="242.868" r="5.051"/><path d="m263.071 238.827c-2.789 0-5.051 2.261-5.051 5.051s2.261 5.051 5.051 5.051 5.051-2.261 5.051-5.051-2.261-5.051-5.051-5.051z"/><path d="m124.954 92.935c-4.142 0-7.5 3.358-7.5 7.5v54.549c0 4.142 3.358 7.5 7.5 7.5s7.5-3.358 7.5-7.5v-12.521l18.572 17.918c1.456 1.404 3.332 2.103 5.207 2.103 1.965 0 3.927-.767 5.398-2.292 2.876-2.981 2.791-7.729-.19-10.605l-23.803-22.964 21.734-19.978c3.049-2.803 3.249-7.548.446-10.598-2.803-3.049-7.547-3.249-10.598-.446l-16.768 15.412v-10.578c.002-4.142-3.356-7.5-7.498-7.5z"/><path d="m215.306 154.984v-16.235c2.874-.014 5.895-.027 7.689-.027 12.79 0 23.195-10.27 23.195-22.894s-10.405-22.894-23.195-22.894h-15.189c-4.142 0-7.5 3.358-7.5 7.5v54.549c0 4.142 3.358 7.5 7.5 7.5s7.5-3.357 7.5-7.499zm0-47.049h7.689c4.442 0 8.195 3.615 8.195 7.894s-3.753 7.894-8.195 7.894c-1.795 0-4.812.012-7.689.026z"/><path d="m363.663 154.984v-16.235c2.874-.014 5.895-.027 7.689-.027 12.79 0 23.195-10.27 23.195-22.894s-10.405-22.894-23.195-22.894h-15.189c-4.142 0-7.5 3.358-7.5 7.5v54.549c0 4.142 3.358 7.5 7.5 7.5s7.5-3.357 7.5-7.499zm0-47.049h7.689c4.442 0 8.195 3.615 8.195 7.894s-3.753 7.894-8.195 7.894c-1.795 0-4.812.012-7.689.026z"/><path d="m332.134 127.709c0-19.175-15.6-34.774-34.774-34.774s-34.774 15.6-34.774 34.774 15.6 34.774 34.774 34.774 34.774-15.599 34.774-34.774zm-54.549 0c0-10.904 8.871-19.774 19.774-19.774s19.774 8.871 19.774 19.774-8.871 19.774-19.774 19.774-19.774-8.87-19.774-19.774z"/><path d="m168.152 135.147h8.081c4.142 0 7.5-3.358 7.5-7.5s-3.358-7.5-7.5-7.5h-8.081c-4.142 0-7.5 3.358-7.5 7.5s3.358 7.5 7.5 7.5z"/><path d="m248.5 361.057v12.122c0 4.142 3.358 7.5 7.5 7.5s7.5-3.358 7.5-7.5v-12.122c0-4.142-3.358-7.5-7.5-7.5s-7.5 3.358-7.5 7.5z"/><path d="m442.77 188.387-14.113-6.686-1.888-5.035c14.986-24.484 22.601-48.471 22.601-71.347 0-58.073-47.246-105.319-105.32-105.319-35.59 0-68.831 18.146-88.05 47.173-19.219-29.027-52.459-47.173-88.05-47.173-58.074 0-105.32 47.246-105.32 105.32 0 14.725 3.155 29.997 9.376 45.391 1.552 3.84 5.923 5.695 9.764 4.143 3.84-1.552 5.695-5.924 4.143-9.764-5.497-13.6-8.284-26.98-8.284-39.77 0-49.803 40.518-90.32 90.32-90.32 34.5 0 66.413 19.843 81.301 50.552 1.253 2.586 3.875 4.228 6.749 4.228s5.495-1.642 6.749-4.228c14.889-30.709 46.802-50.552 81.302-50.552 49.803 0 90.32 40.517 90.32 90.32 0 16.89-4.861 34.689-14.456 53.069l-.226-.604c-1.706-4.549-5.947-7.489-10.806-7.489-4.858 0-9.1 2.939-10.806 7.489l-8.969 23.917-14.112 6.685c-4.071 1.929-6.601 5.925-6.601 10.43s2.529 8.501 6.6 10.43l5.293 2.508c-18.447 19.36-39.193 36.656-57.688 50.561.994-4.668 1.511-9.485 1.511-14.395 0-14.526-4.513-28.392-13.05-40.099-2.44-3.347-7.132-4.083-10.479-1.641-3.347 2.44-4.081 7.132-1.64 10.479 6.653 9.123 10.169 19.932 10.169 31.26 0 16.054-7.03 30.852-19.354 40.987h-67.512c-12.323-10.135-19.353-24.932-19.353-40.987 0-29.285 23.825-53.11 53.11-53.11 6.434 0 12.725 1.14 18.697 3.389 3.877 1.458 8.203-.499 9.662-4.376 1.459-3.876-.5-8.202-4.376-9.662-7.668-2.887-15.737-4.351-23.983-4.351-37.556 0-68.11 30.554-68.11 68.11 0 4.91.517 9.728 1.511 14.396-30.691-23.063-65.227-53.634-87.712-87.689-2.282-3.456-6.935-4.409-10.391-2.126-3.457 2.282-4.409 6.935-2.126 10.391 28.891 43.759 76.173 81.615 111.783 106.237-7.396 1.209-13.065 7.626-13.065 15.359v16.163c0 8.592 6.99 15.582 15.582 15.582h5.313l13.251 136.03c1.091 11.137 10.353 19.537 21.543 19.537h4.92v12.7c0 4.142 3.358 7.5 7.5 7.5s7.5-3.358 7.5-7.5v-12.7h4.92c11.19 0 20.452-8.399 21.545-19.543l5.54-56.88c.401-4.123-2.615-7.79-6.738-8.192-4.133-.401-7.791 2.615-8.192 6.738l-5.54 56.875c-.335 3.422-3.18 6.002-6.616 6.002h-24.84c-3.436 0-6.28-2.58-6.615-5.997l-13.109-134.571h64.287l-4.178 42.851c-.402 4.123 2.615 7.79 6.737 8.192.248.024.493.036.736.036 3.814 0 7.078-2.898 7.456-6.773l4.32-44.306h5.314c8.592 0 15.582-6.99 15.582-15.582v-16.163c0-7.732-5.667-14.148-13.062-15.358 22.914-15.836 53.84-39.414 80.3-67.222l6.728 17.941c1.706 4.549 5.948 7.489 10.806 7.489 4.859 0 9.1-2.939 10.806-7.489l8.969-23.917 14.113-6.685c4.071-1.928 6.6-5.925 6.6-10.43.001-4.504-2.528-8.501-6.599-10.429zm-133.66 132.263c0 .321-.261.582-.582.582h-105.056c-.321 0-.582-.261-.582-.582v-16.163c0-.32.261-.581.582-.581h105.057c.321 0 .582.261.582.581v16.163zm112.599-118.025h-.001c-3.201 1.517-5.648 4.178-6.891 7.494l-5.935 15.825-5.935-15.825c-1.243-3.315-3.69-5.977-6.892-7.494l-8.04-3.809 8.039-3.808c3.202-1.516 5.649-4.178 6.893-7.494l5.935-15.826 5.935 15.826c1.244 3.316 3.691 5.978 6.893 7.494l8.039 3.808z"/><path d="m137.006 281.541-14.113-6.685-8.969-23.917c-1.706-4.549-5.948-7.489-10.806-7.489-4.859 0-9.1 2.939-10.806 7.489l-8.969 23.917-14.113 6.685c-4.071 1.928-6.6 5.925-6.6 10.429 0 4.505 2.529 8.501 6.6 10.43l14.113 6.686 8.969 23.917c1.706 4.549 5.947 7.489 10.806 7.489 4.858 0 9.1-2.939 10.806-7.489l8.969-23.917 14.112-6.685c4.071-1.929 6.601-5.925 6.601-10.43 0-4.506-2.529-8.502-6.6-10.43zm-21.061 14.237c-3.201 1.516-5.648 4.177-6.892 7.494l-5.935 15.826-5.935-15.826c-1.244-3.316-3.691-5.978-6.893-7.494l-8.039-3.808 8.041-3.809c3.201-1.517 5.648-4.178 6.891-7.494l5.935-15.825 5.935 15.825c1.243 3.315 3.69 5.977 6.892 7.494l8.04 3.809z"/><path d="m406.719 390.42-14.113-6.685-8.969-23.917c-1.706-4.549-5.948-7.489-10.806-7.489-4.859 0-9.1 2.939-10.806 7.489l-8.969 23.917-14.113 6.685c-4.071 1.928-6.6 5.925-6.6 10.429 0 4.505 2.529 8.501 6.6 10.43l14.113 6.686 8.969 23.917c1.706 4.549 5.948 7.488 10.806 7.488s9.1-2.939 10.806-7.488l8.969-23.917 14.112-6.685c4.071-1.929 6.601-5.925 6.601-10.43 0-4.506-2.529-8.502-6.6-10.43zm-21.061 14.238c-3.201 1.516-5.648 4.177-6.892 7.494l-5.935 15.826-5.935-15.826c-1.244-3.316-3.691-5.978-6.893-7.494l-8.039-3.808 8.041-3.809c3.201-1.517 5.648-4.178 6.891-7.494l5.935-15.825 5.935 15.825c1.243 3.315 3.69 5.977 6.892 7.494l8.04 3.809z"/></g></g></svg>