<svg xmlns="http://www.w3.org/2000/svg" width="39" height="47" fill="none" viewBox="0 0 39 47">
    <g opacity=".8">
        <path fill="#fff" d="M1.775 3.063c.176.006.326.071.45.195.123.117.188.263.195.44v4.784c-.04.391-.254.603-.645.635-.182 0-.341-.058-.478-.176-.13-.123-.195-.276-.195-.459V3.697c.006-.182.074-.332.205-.449.13-.124.286-.186.468-.186zm1.67 1.718c.437-.293 1.026-.589 1.768-.888l1.601-.684c.072-.033.15-.052.235-.059.182-.013.338.043.469.166.13.118.195.27.195.46 0 .214-.046.374-.137.478-.084.098-.195.179-.332.244l-1.367.518c-.267.104-.52.208-.762.312-.234.098-.449.212-.644.342-.196.117-.3.25-.313.4.013.144.117.277.313.4.195.13.41.248.644.352.241.098.495.199.762.303l1.523.557c.137.065.248.15.332.254.092.097.137.253.137.468 0 .19-.065.345-.195.469-.13.117-.287.17-.469.156-.085-.006-.163-.026-.234-.058l-1.758-.723c-.742-.3-1.335-.596-1.777-.889-.437-.3-.658-.729-.665-1.289.007-.56.232-.99.674-1.289zM9.53 3.063c.176.006.326.071.45.195.123.117.188.263.195.44v4.784c-.04.391-.254.603-.645.635-.182 0-.341-.058-.478-.176-.13-.123-.196-.276-.196-.459V3.697c.007-.182.075-.332.206-.449.13-.124.286-.186.468-.186zM11.2 4.78c.436-.293 1.026-.589 1.768-.888l1.601-.684c.072-.033.15-.052.235-.059.182-.013.338.043.468.166.13.118.196.27.196.46 0 .214-.046.374-.137.478-.085.098-.195.179-.332.244l-1.367.518c-.267.104-.521.208-.762.312-.234.098-.45.212-.644.342-.196.117-.3.25-.313.4.013.144.117.277.313.4.195.13.41.248.644.352.241.098.495.199.762.303l1.523.557c.137.065.248.15.332.254.091.097.137.253.137.468 0 .19-.065.345-.195.469-.13.117-.287.17-.469.156-.085-.006-.163-.026-.234-.058l-1.758-.723c-.742-.3-1.335-.596-1.777-.889-.437-.3-.658-.729-.665-1.289.007-.56.232-.99.674-1.289zm7.48 4.424c-.22 0-.442-.039-.663-.117-.215-.078-.424-.192-.625-.342-.202-.156-.378-.361-.528-.615-.15-.254-.23-.557-.244-.908V3.697c0-.182.065-.332.195-.449.137-.124.297-.186.479-.186.39.033.602.245.635.635v3.448c.006.156.039.29.097.4.059.104.124.189.196.254.071.058.143.104.215.137.078.026.156.039.234.039.078 0 .156-.013.234-.04.078-.032.153-.078.225-.136.072-.065.137-.15.195-.254.059-.11.088-.244.088-.4V3.697c0-.182.065-.332.195-.449.137-.124.297-.186.479-.186.39.033.605.245.645.635v3.448c.006.156.038.286.097.39.059.11.124.199.195.264.072.058.144.104.215.137.078.026.157.039.235.039.078 0 .156-.013.234-.04.078-.032.153-.078.225-.136.071-.065.136-.15.195-.254.059-.11.088-.244.088-.4V3.697c0-.182.065-.332.195-.449.137-.124.296-.186.479-.186.39.033.605.245.644.635v3.526c0 .351-.078.654-.234.908-.15.254-.326.459-.527.615-.196.15-.404.264-.625.342-.215.078-.437.117-.665.117-.22 0-.442-.039-.664-.117-.215-.078-.423-.195-.625-.352-.039-.026-.075-.055-.107-.088l-.107.088c-.202.157-.414.274-.635.352-.215.078-.436.117-.664.117zm8.33-1.738c0-.182.063-.335.186-.46.13-.13.287-.194.47-.194h1.493l-.254-.723c-.104-.267-.208-.518-.312-.752-.098-.241-.212-.46-.342-.654-.117-.196-.25-.3-.4-.313-.157.013-.297.117-.42.313-.124.195-.238.413-.342.654-.098.234-.199.485-.303.752l-.928 2.539c-.065.137-.15.25-.253.342-.098.084-.248.127-.45.127-.189 0-.345-.065-.468-.196-.118-.13-.17-.286-.157-.468.007-.085.026-.163.059-.235l1.074-2.773c.3-.73.6-1.319.899-1.768.293-.443.722-.667 1.289-.674.56.007.986.231 1.279.674.3.436.599 1.026.898 1.768l1.075 2.773c.032.072.052.15.058.235.013.182-.042.338-.166.468-.117.13-.27.196-.459.196-.215 0-.374-.043-.478-.127-.098-.091-.18-.205-.244-.342l-.186-.508h-1.963c-.182 0-.335-.065-.459-.195-.13-.124-.195-.277-.195-.46zm5.782-4.404c.182 0 .339.061.469.185.13.117.198.267.205.45V6.05c-.007.267.01.514.049.742.045.221.15.42.312.596.163.175.368.27.615.283h3.125c.183.006.332.075.45.205.123.13.185.286.185.469-.006.175-.071.325-.195.449-.117.117-.264.179-.44.185H34.11c-.455-.026-.833-.179-1.132-.459-.293-.286-.505-.634-.635-1.044-.124-.41-.189-.847-.195-1.309v-2.47c.006-.177.071-.323.195-.44.123-.124.273-.189.449-.196z"/>
        <path fill="#fff" d="M21.915 25.902c.503-.237.725-.833.496-1.331-.23-.499-.823-.71-1.326-.473l.83 1.804zm-16.559-.4c1.2-2 4.151-2.94 6.812-2.054l.663-1.896c-3.338-1.113-7.387-.055-9.187 2.945l1.712 1.006zm6.812-2.054c.645.215 1.279.558 1.967.967.66.392 1.407.87 2.157 1.249 1.568.79 3.41 1.281 5.623.238l-.83-1.804c-1.439.678-2.597.419-3.866-.22-.669-.338-1.299-.744-2.038-1.184-.71-.422-1.494-.857-2.35-1.142l-.663 1.896z" opacity=".7"/>
        <path fill="#fff" d="M31.83 23.742c.41.37 1.042.338 1.412-.072.37-.41.338-1.042-.072-1.412l-1.34 1.484zM32.5 23c.67-.742.67-.743.669-.744l-.002-.001-.004-.003-.007-.007-.02-.018-.058-.046c-.046-.036-.107-.082-.184-.134-.153-.104-.369-.233-.65-.361-.562-.258-1.376-.51-2.45-.557-2.156-.095-5.246.636-9.372 3.555l1.155 1.632c3.875-2.74 6.535-3.26 8.129-3.19.8.036 1.362.22 1.705.378.173.079.293.153.362.2.035.023.057.04.067.047l.004.004-.005-.004-.004-.004-.002-.002-.002-.001c0-.001-.001-.002.669-.744zm-12.078 1.684c-1.897 1.342-3.202 1.704-4.182 1.696-.996-.008-1.817-.39-2.827-.916-.967-.502-2.146-1.161-3.616-1.311-1.513-.155-3.212.23-5.311 1.49l1.028 1.715c1.837-1.102 3.106-1.315 4.08-1.216 1.019.105 1.848.552 2.897 1.097 1.005.523 2.209 1.129 3.733 1.14 1.54.013 3.25-.575 5.354-2.063l-1.156-1.632z"/>
        <path stroke="#fff" stroke-linejoin="round" stroke-width="2" d="M6.473 44.221l-3.205-28.81c-.139-1.25.897-2.316 2.151-2.232 10.796.725 20.673.407 26.09.028 1.28-.09 2.341 1.005 2.184 2.278l-3.555 28.76C30.014 45.247 29.163 46 28.153 46H8.461c-1.02 0-1.875-.766-1.988-1.779z"/>
    </g>
</svg>
