<svg xmlns="http://www.w3.org/2000/svg" width="45" height="44" fill="none" viewBox="0 0 45 44">
    <path fill="#fff" d="M19.664 8.953c2.223-.297 4.601.555 6.764 1.037.673-.243 1.183-.468 2.111-.265 1.064.233 1.923 1.532 2.522 2.37.631.884 1.393 3.715 1.07 5.187-.322 1.472-.544 2.482-1.358 3.864-1.055 1.79-.477 1.957-2.715 3.047-1.405.685-1.912 1.648-3.474 1.84-1.521.188-2.63 1.505-4.722.527-2.092-.979-3.757.31-4.882 0-.994-.218-2.056-2.45-2.876-3.06-.544-.405-1.126-.762-1.738-1.048-.48-.225-.833-.736-1.241-.959-1.08-.587-.404-2.15-.185-3.151.298-1.359.688-2.387 1.557-3.478.55-.69 1.28-1.279 1.784-1.973.559-.77 1.303-1.017 1.959-1.591 1.344-1.178 3.66-2.112 5.424-2.347z"/>
    <path stroke="#000" stroke-linecap="round" d="M26.51 10.008c-2.186-.479-4.595-1.356-6.846-1.055-1.763.235-4.08 1.17-5.424 2.347-.656.574-1.4.822-1.959 1.591-.504.694-1.233 1.282-1.784 1.973-.869 1.091-1.259 2.12-1.557 3.477-.219 1.002-.894 2.565.185 3.152.408.223.76.734 1.24.959.613.286 1.195.642 1.74 1.047.819.61 1.881 2.843 2.875 3.06 1.125.312 2.79-.978 4.882 0 2.091.98 3.2-.338 4.722-.525 1.562-.193 2.069-1.156 3.474-1.84 2.238-1.09 1.66-1.257 2.715-3.047.814-1.383 1.036-2.393 1.358-3.865.323-1.472-.439-4.303-1.07-5.186-.6-.84-1.458-2.138-2.522-2.371-1.211-.265-1.712.2-2.789.48"/>
    <path fill="#FF8D8D" d="M19.872 15.92c1.666-2.448 6.322-3.12 7.81-.907 1.488 2.214.256 3.103-.755 4.691-1.012 1.59-3.306 1.612-4.986 2.784-1.84 1.283-1.764 2.03-3.398 3.487-1.634 1.456-3.697.217-5.309-1.352-1.415-1.378 1.414-4.495 2.765-4.705 1.352-.209 2.207-1.55 3.873-3.998z" style="mix-blend-mode:multiply"/>
    <path stroke="#000" stroke-linecap="round" d="M24.938 16.227c-.495.773-1.357 1.825-2.24 2.055m-5.562 2.479c-.27 1.03-1.611 1.778-2.592 2.033"/>
    <path fill="#fff" d="M10.721 14.835c.221.35-.244.825-.082 2.421.162 1.596.053 2.093-.627 2.859s-.352 1.609-1.438 1.891c-1.098.286-.541 1.262-2.28 1.062-1.738-.2-.697-.277-2.333-1.032-.812-.375-2.062.069-2.821-1.138-.76-1.207.897-1.759 2.985-1.947 2.423-.219 2.286-1.446 3.095-2.444.835-1.03 1.25-3.368 2.118-2.657.868.71 1.383.985 1.383.985zM20.522 4.854c-.617 1.793-2.02 3.396-.434 4.314 0 0 1.093 1.033 2.277 1.293 1.183.259 2.872-.958 3.39-.051.517.906 1.205 2.89 2.362 1.83.315-.204.772-.962.848-1.311.182-.83.017-1.318-.087-2.163-.334-.97-.47-2.011-2.495-2.628-.724-.425-1.892-1.446-2.713-1.634-.77-.177-1.532-1.213-1.89-.719-.32.44-1.05.465-1.258 1.07z"/>
    <path stroke="#000" stroke-linecap="round" d="M10.721 14.835c.221.35-.244.825-.082 2.421.162 1.596.053 2.093-.627 2.859s-.352 1.609-1.438 1.891c-1.098.286-.541 1.262-2.28 1.062-1.738-.2-.697-.277-2.333-1.032-.812-.375-2.062.069-2.821-1.138-.76-1.207.897-1.759 2.985-1.947 2.423-.219 2.286-1.446 3.095-2.444.835-1.03 1.25-3.368 2.118-2.657.868.71 1.383.985 1.383.985zM20.522 4.854c-.617 1.793-2.02 3.396-.434 4.314 0 0 1.093 1.033 2.277 1.293 1.183.259 2.872-.958 3.39-.051.517.906 1.205 2.89 2.362 1.83.315-.204.772-.962.848-1.311.182-.83.017-1.318-.087-2.163-.334-.97-.47-2.011-2.495-2.628-.724-.425-1.892-1.446-2.713-1.634-.77-.177-1.532-1.213-1.89-.719-.32.44-1.05.465-1.258 1.07z"/>
    <path fill="#000" stroke="#000" stroke-linecap="round" d="M19.84 22.54c-.257-.763.486-.385 2.04-1.325 1.555-.941 1.158 1.628.39 2.059-.77.431-2.11.22-2.43-.734z"/>
    <path fill="#F19049" stroke="#000" stroke-linecap="round" stroke-linejoin="round" d="M8.98 29.5c4-4 5.5-2 9-4s12 6 10.5 12-4.951 6.692-12.5 5.5c-9.5-1.5-11-9.5-7-13.5z"/>
    <path stroke="#fff" stroke-linecap="round" stroke-linejoin="round" d="M14.563 33.428c3.566-3.477 3.653-2.67 3.653-2.67m-3.653 2.67c-2.74-.296-3.653.891-2.74 2.672.495.966 1.798 1.146 2.74.54m0-3.212c1.826.891.793 2.7 0 3.211m3.653-5.882c-1.827-.89 1.826-4.452 2.74-1.78.913 2.67-.914 2.67-2.74 1.78zm-3.653 5.882l3.653 2.302m0 0c.325-.78 1.49-1.93 2.755-.643s0 3.218-1.898 2.574c-.994-.337-1.266-.95-.857-1.93z"/>
    <path fill="#fff" d="M43.98 27c-1.6-9.2-10.5-10-11.5-9.5s-.75 2-1 2.5-1.265 2.883-2.5 3.5c-1.6.8-2 1.5-3 2s-3 1-3 1l2.5 2.5c1.5 1.5 2.5 3.68 2.5 3.68-.314.16-.642.275-1 .32-3.2.4-3.5 3-1.5 4 2.001 1 20.1-.8 18.5-10z"/>
    <path stroke="#000" stroke-linecap="round" stroke-linejoin="round" d="M32.98 25c0 .676.216 4.442-2.5 6-.942.541-1.675 1.262-2.5 1.68m0 0c-.314.16-.642.275-1 .32-3.2.4-3.5 3-1.5 4 2.001 1 20.1-.8 18.5-10-1.6-9.2-10.5-10-11.5-9.5s-.75 2-1 2.5-1.265 2.883-2.5 3.5c-1.6.8-2 1.5-3 2s-3 1-3 1l2.5 2.5c1.5 1.5 2.5 3.68 2.5 3.68z"/>
    <path fill="#D3EEF0" d="M29.45 24.887c-.663-1.699-5.263-1.674-4.884-1.07.38.603 2.488.672 3.31 1.245.823.573 2.238 1.523 1.575-.175z"/>
</svg>
