<svg xmlns="http://www.w3.org/2000/svg" width="33" height="33" fill="none" viewBox="0 0 33 33">
    <path stroke="#555" stroke-width="1.5" d="M4 19.875v-5c0-.332.132-.65.366-.884.235-.234.552-.366.884-.366h3.371c.247 0 .489-.073.694-.21l5.241-3.495c.189-.126.408-.198.634-.209.226-.01.451.04.65.147.2.107.367.267.483.461.116.195.177.417.177.643v12.826c0 .226-.061.448-.178.642-.116.194-.283.353-.482.46-.2.107-.425.157-.65.146-.227-.01-.445-.083-.634-.209l-5.241-3.493c-.206-.137-.447-.21-.694-.209H5.25c-.332 0-.65-.132-.884-.366-.234-.235-.366-.553-.366-.884v0z"/>
    <path stroke="#555" stroke-width="1.5" d="M4 19.875v-5c0-.332.132-.65.366-.884.235-.234.552-.366.884-.366h3.371c.247 0 .489-.073.694-.21l5.241-3.495c.189-.126.408-.198.634-.209.226-.01.451.04.65.147.2.107.367.267.483.461.116.195.177.417.177.643v12.826c0 .226-.061.448-.178.642-.116.194-.283.353-.482.46-.2.107-.425.157-.65.146-.227-.01-.445-.083-.634-.209l-5.241-3.493c-.206-.137-.447-.21-.694-.209H5.25c-.332 0-.65-.132-.884-.366-.234-.235-.366-.553-.366-.884v0z"/>
    <path stroke="#555" stroke-linecap="round" stroke-linejoin="round" stroke-width="1.5" d="M22.125 11.75S24 13.625 24 16.75s-1.875 5-1.875 5M25.875 8S29 11.125 29 16.75s-3.125 8.75-3.125 8.75"/>
</svg>
